<?xml version="1.0" encoding="utf-8"?>
<!-- Generator: Adobe Illustrator 16.0.4, SVG Export Plug-In . SVG Version: 6.00 Build 0)  -->
<!DOCTYPE svg PUBLIC "-//W3C//DTD SVG 1.1//EN" "http://www.w3.org/Graphics/SVG/1.1/DTD/svg11.dtd">
<svg version="1.1"
	 id="svg3433" inkscape:version="0.48.0 r9654" sodipodi:docname="bisulfite_conversion.svg" xmlns:dc="http://purl.org/dc/elements/1.1/" xmlns:cc="http://creativecommons.org/ns#" xmlns:rdf="http://www.w3.org/1999/02/22-rdf-syntax-ns#" xmlns:svg="http://www.w3.org/2000/svg" xmlns:sodipodi="http://sodipodi.sourceforge.net/DTD/sodipodi-0.dtd" xmlns:inkscape="http://www.inkscape.org/namespaces/inkscape"
	 xmlns="http://www.w3.org/2000/svg" xmlns:xlink="http://www.w3.org/1999/xlink" x="0px" y="0px" width="1000px" height="500px"
	 viewBox="0 0 1000 500" enable-background="new 0 0 1000 500" xml:space="preserve">
<sodipodi:namedview  inkscape:window-x="-4" inkscape:window-y="-4" inkscape:window-maximized="1" inkscape:current-layer="g3441" fit-margin-right="27" fit-margin-bottom="32" inkscape:pageshadow="2" inkscape:pageopacity="0" inkscape:window-height="1144" inkscape:window-width="1920" pagecolor="#ffffff" bordercolor="#666666" borderopacity="1" objecttolerance="10" gridtolerance="10" guidetolerance="10" id="namedview225" showgrid="false" inkscape:zoom="1.600332" inkscape:cx="554.3374" inkscape:cy="257.55572" fit-margin-top="32" fit-margin-left="27" borderlayer="true" showborder="true">
	</sodipodi:namedview>
<g id="g3441" transform="matrix(1.9843344,0,0,-1.9843344,-14.944954,1539.2918)">
	<g enable-background="new    ">
		<path d="M40.602,726v7.158h0.972l3.759-5.62v5.62h0.908V726h-0.971l-3.759,5.624V726H40.602z"/>
	</g>
	<g enable-background="new    ">
		<path d="M55.241,700.8v7.158h0.972l3.759-5.62v5.62h0.908V700.8h-0.971l-3.759,5.624V700.8H55.241z"/>
	</g>
	<g enable-background="new    ">
		<path d="M55.28,689.521v7.158h0.947v-2.939h3.72v2.939h0.947v-7.158h-0.947v3.374h-3.72v-3.374H55.28z"/>
	</g>
	<g enable-background="new    ">
		<path d="M55.241,751.2v7.158h0.972l3.759-5.62v5.62h0.908V751.2h-0.971l-3.759,5.624V751.2H55.241z"/>
	</g>
	<g enable-background="new    ">
		<path d="M62.481,751.2v7.158h0.947v-2.939h3.72v2.939h0.947V751.2h-0.947v3.374h-3.72V751.2H62.481z"/>
	</g>
	<g enable-background="new    ">
		<path d="M72.907,749.236v-0.676h-3.785c-0.005,0.169,0.022,0.332,0.082,0.488c0.096,0.258,0.251,0.512,0.463,0.762
			c0.212,0.25,0.519,0.539,0.92,0.867c0.622,0.51,1.043,0.915,1.262,1.213c0.219,0.298,0.328,0.58,0.328,0.845
			c0,0.279-0.1,0.514-0.299,0.705c-0.199,0.191-0.459,0.287-0.779,0.287c-0.339,0-0.609-0.101-0.813-0.305
			c-0.203-0.203-0.306-0.484-0.309-0.844l-0.722,0.074c0.049,0.539,0.235,0.95,0.559,1.232c0.323,0.282,0.756,0.424,1.3,0.424
			c0.549,0,0.985-0.152,1.305-0.457c0.32-0.305,0.481-0.682,0.481-1.133c0-0.229-0.047-0.454-0.141-0.676
			c-0.094-0.221-0.249-0.454-0.467-0.699c-0.217-0.245-0.579-0.581-1.084-1.008c-0.422-0.354-0.693-0.594-0.812-0.721
			c-0.12-0.126-0.219-0.253-0.297-0.381H72.907z"/>
	</g>
	<g enable-background="new    ">
		<path d="M25.683,704.286c0,1.188,0.319,2.118,0.957,2.79c0.638,0.672,1.461,1.008,2.471,1.008c0.661,0,1.256-0.158,1.787-0.473
			c0.531-0.316,0.935-0.756,1.213-1.321c0.278-0.565,0.417-1.205,0.417-1.921c0-0.726-0.146-1.375-0.439-1.948
			c-0.293-0.573-0.708-1.006-1.245-1.301c-0.537-0.295-1.116-0.442-1.738-0.442c-0.674,0-1.276,0.163-1.806,0.488
			c-0.531,0.326-0.933,0.77-1.206,1.333C25.82,703.062,25.683,703.658,25.683,704.286z M26.66,704.272
			c0-0.862,0.232-1.542,0.696-2.038c0.464-0.496,1.046-0.744,1.745-0.744c0.713,0,1.299,0.25,1.76,0.752
			c0.461,0.501,0.691,1.212,0.691,2.134c0,0.583-0.099,1.091-0.296,1.526c-0.197,0.435-0.485,0.771-0.864,1.011
			c-0.379,0.239-0.805,0.359-1.277,0.359c-0.671,0-1.248-0.23-1.731-0.691C26.902,706.118,26.66,705.349,26.66,704.272z"/>
	</g>
	
		<path id="path3471" inkscape:connector-curvature="0" fill="none" stroke="#000000" stroke-width="0.72" stroke-linecap="round" stroke-miterlimit="10" d="
		M58.32,738.48l-10.32-6"/>
	
		<path id="path3473" inkscape:connector-curvature="0" fill="none" stroke="#000000" stroke-width="0.72" stroke-linecap="round" stroke-miterlimit="10" d="
		M58.56,734.64l-10.08-5.76"/>
	
		<path id="path3475" inkscape:connector-curvature="0" fill="none" stroke="#000000" stroke-width="0.72" stroke-linecap="round" stroke-miterlimit="10" d="
		M43.68,724.8v-11.52"/>
	
		<path id="path3477" inkscape:connector-curvature="0" fill="none" stroke="#000000" stroke-width="0.72" stroke-linecap="round" stroke-miterlimit="10" d="
		M43.68,713.28l9.84-5.76"/>
	
		<path id="path3479" inkscape:connector-curvature="0" fill="none" stroke="#000000" stroke-width="0.72" stroke-linecap="round" stroke-miterlimit="10" d="
		M62.64,707.28l10.08,6"/>
	
		<path id="path3481" inkscape:connector-curvature="0" fill="none" stroke="#000000" stroke-width="0.72" stroke-linecap="round" stroke-miterlimit="10" d="
		M72.72,713.28v16.8"/>
	
		<path id="path3483" inkscape:connector-curvature="0" fill="none" stroke="#000000" stroke-width="0.72" stroke-linecap="round" stroke-miterlimit="10" d="
		M69.36,714.96v13.44"/>
	
		<path id="path3485" inkscape:connector-curvature="0" fill="none" stroke="#000000" stroke-width="0.72" stroke-linecap="round" stroke-miterlimit="10" d="
		M72.72,730.08l-14.4,8.4"/>
	
		<path id="path3487" inkscape:connector-curvature="0" fill="none" stroke="#000000" stroke-width="0.72" stroke-linecap="round" stroke-miterlimit="10" d="
		M58.32,738.48V750"/>
	
		<path id="path3489" inkscape:connector-curvature="0" fill="none" stroke="#000000" stroke-width="0.72" stroke-linecap="round" stroke-miterlimit="10" d="
		M42.72,714.72l-8.64-5.04"/>
	
		<path id="path3491" inkscape:connector-curvature="0" fill="none" stroke="#000000" stroke-width="0.72" stroke-linecap="round" stroke-miterlimit="10" d="
		M44.64,711.84l-10.56-6"/>
	<g enable-background="new    ">
		<path d="M181.482,726.96v7.158h0.971l3.759-5.62v5.62h0.908v-7.158h-0.971l-3.759,5.624v-5.624H181.482z"/>
	</g>
	<g enable-background="new    ">
		<path d="M195.642,701.76v7.158h0.971l3.759-5.62v5.62h0.908v-7.158h-0.971l-3.759,5.624v-5.624H195.642z"/>
	</g>
	<g enable-background="new    ">
		<path d="M195.681,690.48v7.158h0.947v-2.939h3.72v2.939h0.947v-7.158h-0.947v3.374h-3.72v-3.374H195.681z"/>
	</g>
	<g enable-background="new    ">
		<path d="M196.122,751.92v7.158h0.971l3.759-5.62v5.62h0.908v-7.158h-0.971l-3.759,5.624v-5.624H196.122z"/>
	</g>
	<g enable-background="new    ">
		<path d="M203.361,751.92v7.158h0.947v-2.939h3.72v2.939h0.947v-7.158h-0.947v3.374h-3.72v-3.374H203.361z"/>
	</g>
	<g enable-background="new    ">
		<path d="M213.787,749.956v-0.676h-3.785c-0.005,0.169,0.022,0.332,0.082,0.488c0.096,0.258,0.25,0.512,0.463,0.762
			c0.212,0.25,0.519,0.539,0.92,0.867c0.623,0.51,1.043,0.915,1.262,1.213c0.219,0.298,0.328,0.58,0.328,0.846
			c0,0.279-0.099,0.514-0.299,0.705c-0.199,0.191-0.459,0.287-0.779,0.287c-0.339,0-0.609-0.101-0.812-0.305
			c-0.203-0.203-0.306-0.484-0.309-0.844l-0.722,0.074c0.049,0.539,0.236,0.95,0.559,1.232c0.323,0.282,0.756,0.424,1.301,0.424
			c0.549,0,0.984-0.152,1.305-0.457c0.32-0.305,0.48-0.682,0.48-1.133c0-0.229-0.047-0.454-0.141-0.676
			c-0.094-0.221-0.25-0.454-0.467-0.699c-0.218-0.245-0.579-0.581-1.084-1.008c-0.422-0.354-0.692-0.594-0.812-0.721
			c-0.12-0.127-0.219-0.253-0.297-0.381H213.787z"/>
	</g>
	<g enable-background="new    ">
		<path d="M166.083,705.486c0,1.188,0.319,2.118,0.957,2.79c0.638,0.672,1.461,1.008,2.47,1.008c0.661,0,1.256-0.158,1.787-0.473
			c0.531-0.316,0.935-0.756,1.214-1.321c0.278-0.565,0.417-1.205,0.417-1.921c0-0.726-0.147-1.375-0.439-1.948
			c-0.293-0.573-0.708-1.006-1.245-1.301c-0.537-0.295-1.116-0.442-1.738-0.442c-0.674,0-1.276,0.163-1.807,0.488
			c-0.531,0.326-0.933,0.77-1.206,1.333C166.22,704.262,166.083,704.858,166.083,705.486z M167.06,705.471
			c0-0.862,0.232-1.542,0.696-2.038c0.464-0.496,1.046-0.744,1.746-0.744c0.713,0,1.299,0.25,1.76,0.752
			c0.461,0.501,0.691,1.212,0.691,2.134c0,0.583-0.098,1.091-0.295,1.526c-0.197,0.435-0.485,0.771-0.864,1.011
			c-0.379,0.239-0.805,0.359-1.277,0.359c-0.67,0-1.247-0.23-1.73-0.691C167.302,707.318,167.06,706.549,167.06,705.471z"/>
	</g>
	<g enable-background="new    ">
		<path fill="#FF0000" d="M224.609,703.58l0.893,0.078c0.042-0.358,0.141-0.652,0.295-0.881c0.155-0.229,0.395-0.415,0.72-0.557
			c0.325-0.141,0.691-0.212,1.098-0.212c0.361,0,0.68,0.054,0.957,0.161c0.277,0.108,0.483,0.255,0.618,0.442
			c0.135,0.187,0.203,0.391,0.203,0.613c0,0.225-0.065,0.421-0.195,0.588c-0.13,0.168-0.345,0.308-0.644,0.422
			c-0.192,0.075-0.617,0.191-1.275,0.349c-0.658,0.158-1.118,0.307-1.381,0.447c-0.342,0.179-0.596,0.401-0.764,0.667
			c-0.168,0.265-0.251,0.562-0.251,0.891c0,0.361,0.103,0.699,0.308,1.013c0.205,0.314,0.504,0.552,0.899,0.715
			c0.394,0.163,0.831,0.244,1.313,0.244c0.531,0,0.999-0.086,1.404-0.256c0.405-0.171,0.717-0.422,0.935-0.754
			c0.218-0.332,0.335-0.708,0.352-1.128l-0.908-0.068c-0.049,0.453-0.214,0.794-0.496,1.025c-0.281,0.231-0.697,0.347-1.247,0.347
			c-0.573,0-0.991-0.105-1.252-0.315c-0.262-0.21-0.393-0.463-0.393-0.759c0-0.257,0.093-0.469,0.279-0.635
			c0.182-0.166,0.658-0.336,1.428-0.51c0.77-0.174,1.298-0.327,1.584-0.456c0.417-0.192,0.724-0.436,0.923-0.73
			c0.198-0.294,0.298-0.634,0.298-1.018c0-0.381-0.109-0.74-0.327-1.077c-0.218-0.337-0.531-0.599-0.939-0.786
			c-0.408-0.187-0.869-0.281-1.379-0.281c-0.648,0-1.19,0.094-1.628,0.283c-0.438,0.189-0.782,0.473-1.031,0.852
			S224.622,703.102,224.609,703.58z"/>
	</g>
	<g enable-background="new    ">
		<path fill="#FF0000" d="M231.313,704.767c0,1.188,0.319,2.118,0.957,2.79c0.638,0.672,1.461,1.008,2.47,1.008
			c0.661,0,1.256-0.158,1.787-0.473c0.531-0.316,0.935-0.756,1.214-1.321c0.278-0.565,0.417-1.205,0.417-1.921
			c0-0.726-0.147-1.375-0.439-1.948c-0.293-0.573-0.708-1.006-1.245-1.301c-0.537-0.295-1.116-0.442-1.738-0.442
			c-0.674,0-1.276,0.163-1.807,0.488c-0.531,0.326-0.933,0.77-1.206,1.333C231.45,703.543,231.313,704.138,231.313,704.767z
			 M232.29,704.752c0-0.862,0.232-1.542,0.696-2.038c0.464-0.496,1.046-0.744,1.746-0.744c0.713,0,1.299,0.25,1.76,0.752
			s0.691,1.212,0.691,2.134c0,0.583-0.098,1.091-0.295,1.526c-0.197,0.435-0.485,0.771-0.864,1.011
			c-0.379,0.239-0.805,0.359-1.277,0.359c-0.67,0-1.247-0.23-1.73-0.691C232.531,706.598,232.29,705.829,232.29,704.752z"/>
	</g>
	<g enable-background="new    ">
		<path fill="#FF0000" d="M239.376,700.151l0.703,0.094c0.081-0.398,0.218-0.686,0.412-0.861c0.194-0.176,0.431-0.264,0.709-0.264
			c0.331,0,0.61,0.115,0.838,0.344c0.228,0.229,0.342,0.513,0.342,0.852c0,0.323-0.105,0.589-0.316,0.799
			c-0.211,0.209-0.479,0.314-0.805,0.314c-0.133,0-0.298-0.026-0.496-0.078l0.078,0.617c0.047-0.005,0.085-0.008,0.113-0.008
			c0.299,0,0.569,0.078,0.809,0.234c0.24,0.156,0.359,0.397,0.359,0.722c0,0.258-0.087,0.471-0.262,0.641
			c-0.174,0.169-0.4,0.254-0.676,0.254c-0.273,0-0.501-0.086-0.684-0.258c-0.182-0.172-0.299-0.43-0.351-0.773l-0.703,0.125
			c0.086,0.471,0.282,0.836,0.586,1.095c0.305,0.259,0.684,0.389,1.136,0.389c0.312,0,0.6-0.067,0.863-0.201
			c0.263-0.134,0.465-0.317,0.604-0.549c0.139-0.232,0.209-0.478,0.209-0.738c0-0.247-0.066-0.473-0.199-0.676
			c-0.132-0.203-0.329-0.365-0.59-0.484c0.339-0.078,0.601-0.24,0.789-0.486s0.281-0.554,0.281-0.924c0-0.5-0.183-0.924-0.547-1.271
			c-0.365-0.347-0.826-0.521-1.383-0.521c-0.502,0-0.92,0.15-1.252,0.449C239.613,699.287,239.423,699.675,239.376,700.151z"/>
	</g>
	<g enable-background="new    ">
		<path fill="#FF0000" d="M240.83,709.959v0.707h2.16v-0.707H240.83z"/>
	</g>
	
		<path id="path3533" inkscape:connector-curvature="0" fill="none" stroke="#000000" stroke-width="0.72" stroke-linecap="round" stroke-miterlimit="10" d="
		M198.96,739.2l-10.08-5.76"/>
	
		<path id="path3535" inkscape:connector-curvature="0" fill="none" stroke="#000000" stroke-width="0.72" stroke-linecap="round" stroke-miterlimit="10" d="
		M199.2,735.36l-10.08-5.52"/>
	
		<path id="path3537" inkscape:connector-curvature="0" fill="none" stroke="#000000" stroke-width="0.72" stroke-linecap="round" stroke-miterlimit="10" d="
		M184.32,725.76l-0.24-11.52"/>
	
		<path id="path3539" inkscape:connector-curvature="0" fill="none" stroke="#000000" stroke-width="0.72" stroke-linecap="round" stroke-miterlimit="10" d="
		M184.08,714.24l9.84-5.76"/>
	
		<path id="path3541" inkscape:connector-curvature="0" fill="none" stroke="#000000" stroke-width="0.72" stroke-linecap="round" stroke-miterlimit="10" d="
		M203.04,708.24l10.08,5.52"/>
	
		<path id="path3543" inkscape:connector-curvature="0" fill="none" stroke="#000000" stroke-width="0.72" stroke-linecap="round" stroke-miterlimit="10" d="
		M213.12,713.76l0.24,16.8"/>
	
		<path id="path3547" inkscape:connector-curvature="0" fill="none" stroke="#000000" stroke-width="0.72" stroke-linecap="round" stroke-miterlimit="10" d="
		M213.36,730.56l-14.4,8.64"/>
	
		<path id="path3549" inkscape:connector-curvature="0" fill="none" stroke="#000000" stroke-width="0.72" stroke-linecap="round" stroke-miterlimit="10" d="
		M198.96,739.2l0.24,11.52"/>
	
		<path id="path3551" inkscape:connector-curvature="0" fill="none" stroke="#000000" stroke-width="0.72" stroke-linecap="round" stroke-miterlimit="10" d="
		M183.36,715.68l-8.88-5.04"/>
	
		<path id="path3553" inkscape:connector-curvature="0" fill="none" stroke="#000000" stroke-width="0.72" stroke-linecap="round" stroke-miterlimit="10" d="
		M185.04,712.8l-10.56-6"/>
	
		<path id="path3555" inkscape:connector-curvature="0" fill="none" stroke="#000000" stroke-width="0.72" stroke-linecap="round" stroke-miterlimit="10" d="
		M213.12,713.76L223.2,708"/>
	<g enable-background="new    ">
		<path d="M322.842,727.2v7.158h0.971l3.759-5.62v5.62h0.908V727.2h-0.971l-3.759,5.624V727.2H322.842z"/>
	</g>
	<g enable-background="new    ">
		<path d="M315.681,727.2v7.158h0.947v-2.939h3.72v2.939h0.947V727.2h-0.947v3.374h-3.72V727.2H315.681z"/>
	</g>
	<g enable-background="new    ">
		<path d="M337.482,702v7.158h0.971l3.759-5.62v5.62h0.908V702h-0.971l-3.759,5.624V702H337.482z"/>
	</g>
	<g enable-background="new    ">
		<path d="M337.521,690.72v7.158h0.947v-2.939h3.72v2.939h0.947v-7.158h-0.947v3.374h-3.72v-3.374H337.521z"/>
	</g>
	<g enable-background="new    ">
		<path fill="#FF0000" d="M336.963,755.886c0,1.188,0.319,2.118,0.957,2.79c0.638,0.672,1.461,1.008,2.47,1.008
			c0.661,0,1.256-0.158,1.787-0.473c0.531-0.316,0.935-0.756,1.214-1.321c0.278-0.565,0.417-1.205,0.417-1.921
			c0-0.726-0.147-1.375-0.439-1.948c-0.293-0.573-0.708-1.006-1.245-1.301c-0.537-0.295-1.116-0.442-1.738-0.442
			c-0.674,0-1.276,0.163-1.807,0.488c-0.531,0.326-0.933,0.77-1.206,1.333C337.1,754.662,336.963,755.258,336.963,755.886z
			 M337.94,755.871c0-0.862,0.232-1.542,0.696-2.038c0.464-0.496,1.046-0.744,1.746-0.744c0.713,0,1.299,0.25,1.76,0.752
			c0.461,0.501,0.691,1.212,0.691,2.134c0,0.583-0.098,1.091-0.295,1.526c-0.197,0.435-0.485,0.771-0.864,1.011
			c-0.379,0.239-0.805,0.359-1.277,0.359c-0.67,0-1.247-0.23-1.73-0.691C338.182,757.717,337.94,756.948,337.94,755.871z"/>
	</g>
	<g enable-background="new    ">
		<path d="M307.924,705.486c0,1.188,0.319,2.118,0.957,2.79c0.638,0.672,1.461,1.008,2.47,1.008c0.661,0,1.256-0.158,1.787-0.473
			c0.531-0.316,0.935-0.756,1.214-1.321c0.278-0.565,0.417-1.205,0.417-1.921c0-0.726-0.147-1.375-0.439-1.948
			c-0.293-0.573-0.708-1.006-1.245-1.301c-0.537-0.295-1.116-0.442-1.738-0.442c-0.674,0-1.276,0.163-1.807,0.488
			c-0.531,0.326-0.933,0.77-1.206,1.333C308.06,704.262,307.924,704.858,307.924,705.486z M308.9,705.471
			c0-0.862,0.232-1.542,0.696-2.038c0.464-0.496,1.046-0.744,1.746-0.744c0.713,0,1.299,0.25,1.76,0.752
			c0.461,0.501,0.691,1.212,0.691,2.134c0,0.583-0.098,1.091-0.295,1.526c-0.197,0.435-0.485,0.771-0.864,1.011
			c-0.379,0.239-0.805,0.359-1.277,0.359c-0.67,0-1.247-0.23-1.73-0.691C309.142,707.318,308.9,706.549,308.9,705.471z"/>
	</g>
	<g enable-background="new    ">
		<path d="M366.449,704.3l0.893,0.078c0.042-0.358,0.141-0.652,0.295-0.881c0.155-0.229,0.395-0.415,0.72-0.557
			c0.325-0.141,0.691-0.212,1.098-0.212c0.361,0,0.68,0.054,0.957,0.161c0.277,0.108,0.483,0.255,0.618,0.442
			c0.135,0.187,0.203,0.391,0.203,0.613c0,0.225-0.065,0.421-0.195,0.588c-0.13,0.168-0.345,0.308-0.644,0.422
			c-0.192,0.075-0.617,0.191-1.275,0.349c-0.657,0.158-1.118,0.307-1.381,0.447c-0.342,0.179-0.596,0.401-0.764,0.667
			c-0.168,0.265-0.251,0.562-0.251,0.891c0,0.361,0.103,0.699,0.308,1.013c0.205,0.314,0.504,0.552,0.899,0.715
			c0.394,0.163,0.831,0.244,1.313,0.244c0.531,0,0.999-0.086,1.404-0.256c0.405-0.171,0.717-0.422,0.935-0.754
			c0.218-0.332,0.335-0.708,0.352-1.128l-0.908-0.068c-0.049,0.453-0.214,0.794-0.496,1.025s-0.697,0.347-1.247,0.347
			c-0.573,0-0.991-0.105-1.253-0.315c-0.262-0.21-0.393-0.463-0.393-0.759c0-0.257,0.093-0.469,0.279-0.635
			c0.182-0.166,0.658-0.336,1.428-0.51c0.77-0.174,1.298-0.327,1.584-0.456c0.417-0.192,0.724-0.435,0.923-0.73
			s0.298-0.634,0.298-1.018c0-0.381-0.109-0.74-0.327-1.077c-0.218-0.337-0.531-0.599-0.939-0.786
			c-0.408-0.187-0.869-0.281-1.379-0.281c-0.648,0-1.19,0.094-1.628,0.283c-0.438,0.189-0.781,0.473-1.031,0.852
			C366.593,703.392,366.462,703.821,366.449,704.3z"/>
	</g>
	<g enable-background="new    ">
		<path d="M373.154,705.486c0,1.188,0.319,2.118,0.957,2.79c0.638,0.672,1.461,1.008,2.47,1.008c0.661,0,1.256-0.158,1.787-0.473
			c0.531-0.316,0.935-0.756,1.214-1.321c0.278-0.565,0.417-1.205,0.417-1.921c0-0.726-0.147-1.375-0.439-1.948
			c-0.293-0.573-0.708-1.006-1.245-1.301c-0.537-0.295-1.116-0.442-1.738-0.442c-0.674,0-1.276,0.163-1.807,0.488
			c-0.531,0.326-0.933,0.77-1.206,1.333C373.291,704.262,373.154,704.858,373.154,705.486z M374.13,705.471
			c0-0.862,0.232-1.542,0.696-2.038c0.464-0.496,1.046-0.744,1.746-0.744c0.713,0,1.299,0.25,1.76,0.752
			c0.461,0.501,0.691,1.212,0.691,2.134c0,0.583-0.098,1.091-0.295,1.526c-0.197,0.435-0.485,0.771-0.864,1.011
			c-0.379,0.239-0.805,0.359-1.277,0.359c-0.67,0-1.247-0.23-1.73-0.691C374.372,707.318,374.13,706.549,374.13,705.471z"/>
	</g>
	<g enable-background="new    ">
		<path d="M381.216,700.872l0.703,0.094c0.081-0.398,0.218-0.686,0.412-0.861c0.194-0.176,0.431-0.264,0.709-0.264
			c0.331,0,0.61,0.115,0.838,0.344c0.228,0.229,0.342,0.513,0.342,0.852c0,0.323-0.105,0.589-0.316,0.799
			c-0.211,0.209-0.479,0.314-0.805,0.314c-0.133,0-0.298-0.026-0.496-0.078l0.078,0.617c0.047-0.005,0.085-0.008,0.113-0.008
			c0.299,0,0.569,0.078,0.809,0.234c0.24,0.156,0.359,0.397,0.359,0.722c0,0.258-0.087,0.471-0.262,0.641
			c-0.174,0.169-0.4,0.254-0.676,0.254c-0.273,0-0.501-0.086-0.684-0.258c-0.182-0.172-0.299-0.43-0.351-0.773l-0.703,0.125
			c0.086,0.471,0.281,0.836,0.586,1.096c0.305,0.259,0.684,0.388,1.136,0.388c0.313,0,0.6-0.067,0.863-0.201
			c0.263-0.134,0.465-0.317,0.604-0.549c0.139-0.232,0.209-0.478,0.209-0.738c0-0.248-0.066-0.473-0.199-0.676
			c-0.132-0.203-0.329-0.365-0.59-0.484c0.339-0.078,0.601-0.24,0.789-0.486c0.188-0.246,0.282-0.554,0.282-0.924
			c0-0.5-0.183-0.924-0.547-1.271c-0.365-0.347-0.826-0.521-1.383-0.521c-0.502,0-0.92,0.15-1.252,0.449
			C381.453,700.007,381.263,700.395,381.216,700.872z"/>
	</g>
	<g enable-background="new    ">
		<path d="M385.694,710.678v0.707h2.16v-0.707H385.694z"/>
	</g>
	
		<path id="path3593" inkscape:connector-curvature="0" fill="none" stroke="#000000" stroke-width="0.72" stroke-linecap="round" stroke-miterlimit="10" d="
		M325.92,726v-11.76"/>
	
		<path id="path3595" inkscape:connector-curvature="0" fill="none" stroke="#000000" stroke-width="0.72" stroke-linecap="round" stroke-miterlimit="10" d="
		M325.92,714.24l9.84-5.52"/>
	
		<path id="path3597" inkscape:connector-curvature="0" fill="none" stroke="#000000" stroke-width="0.72" stroke-linecap="round" stroke-miterlimit="10" d="
		M344.88,708.48l10.08,5.76"/>
	
		<path id="path3599" inkscape:connector-curvature="0" fill="none" stroke="#000000" stroke-width="0.72" stroke-linecap="round" stroke-miterlimit="10" d="
		M354.96,714.24v16.8"/>
	
		<path id="path3603" inkscape:connector-curvature="0" fill="none" stroke="#000000" stroke-width="0.72" stroke-linecap="round" stroke-miterlimit="10" d="
		M354.96,731.04l-14.64,8.4"/>
	
		<path id="path3605" inkscape:connector-curvature="0" fill="none" stroke="#000000" stroke-width="0.72" stroke-linecap="round" stroke-miterlimit="10" d="
		M342,739.44v11.76"/>
	
		<path id="path3607" inkscape:connector-curvature="0" fill="none" stroke="#000000" stroke-width="0.72" stroke-linecap="round" stroke-miterlimit="10" d="
		M338.64,739.44v11.76"/>
	
		<path id="path3609" inkscape:connector-curvature="0" fill="none" stroke="#000000" stroke-width="0.72" stroke-linecap="round" stroke-miterlimit="10" d="
		M324.96,715.68l-8.64-4.8"/>
	
		<path id="path3611" inkscape:connector-curvature="0" fill="none" stroke="#000000" stroke-width="0.72" stroke-linecap="round" stroke-miterlimit="10" d="
		M326.64,712.8l-10.32-6"/>
	
		<path id="path3613" inkscape:connector-curvature="0" fill="none" stroke="#000000" stroke-width="0.72" stroke-linecap="round" stroke-miterlimit="10" d="
		M340.32,739.44l-10.08-5.76"/>
	
		<path id="path3615" inkscape:connector-curvature="0" fill="none" stroke="#000000" stroke-width="0.72" stroke-linecap="round" stroke-miterlimit="10" d="
		M354.96,714.24l10.08-5.76"/>
	<g enable-background="new    ">
		<path d="M465.162,726.72v7.158h0.971l3.759-5.62v5.62h0.908v-7.158h-0.971l-3.759,5.624v-5.624H465.162z"/>
	</g>
	<g enable-background="new    ">
		<path d="M458.001,726.72v7.158h0.947v-2.939h3.72v2.939h0.947v-7.158h-0.947v3.374h-3.72v-3.374H458.001z"/>
	</g>
	<g enable-background="new    ">
		<path d="M479.803,701.52v7.158h0.971l3.759-5.62v5.62h0.908v-7.158h-0.971l-3.759,5.624v-5.624H479.803z"/>
	</g>
	<g enable-background="new    ">
		<path d="M479.841,690.24v7.158h0.947v-2.939h3.72v2.939h0.947v-7.158h-0.947v3.374h-3.72v-3.374H479.841z"/>
	</g>
	<g enable-background="new    ">
		<path d="M479.283,755.406c0,1.188,0.319,2.118,0.957,2.79c0.638,0.672,1.461,1.008,2.47,1.008c0.661,0,1.256-0.158,1.787-0.473
			s0.935-0.756,1.214-1.321c0.278-0.565,0.417-1.205,0.417-1.921c0-0.726-0.147-1.375-0.439-1.948
			c-0.293-0.573-0.708-1.006-1.245-1.301c-0.537-0.295-1.116-0.442-1.738-0.442c-0.674,0-1.276,0.163-1.807,0.488
			c-0.531,0.326-0.933,0.77-1.206,1.333C479.42,754.182,479.283,754.778,479.283,755.406z M480.26,755.392
			c0-0.862,0.232-1.542,0.696-2.038s1.046-0.744,1.746-0.744c0.713,0,1.299,0.25,1.76,0.752c0.461,0.501,0.691,1.212,0.691,2.134
			c0,0.583-0.098,1.091-0.295,1.526c-0.197,0.435-0.485,0.771-0.864,1.011c-0.379,0.239-0.805,0.359-1.277,0.359
			c-0.67,0-1.247-0.23-1.73-0.691C480.501,757.238,480.26,756.469,480.26,755.392z"/>
	</g>
	<g enable-background="new    ">
		<path d="M450.003,705.006c0,1.188,0.319,2.118,0.957,2.79c0.638,0.672,1.461,1.008,2.47,1.008c0.661,0,1.256-0.158,1.787-0.473
			s0.935-0.756,1.214-1.321c0.278-0.565,0.417-1.205,0.417-1.921c0-0.726-0.147-1.375-0.439-1.948s-0.708-1.006-1.245-1.301
			c-0.537-0.295-1.116-0.442-1.738-0.442c-0.674,0-1.276,0.163-1.807,0.488s-0.933,0.77-1.206,1.333
			C450.14,703.782,450.003,704.378,450.003,705.006z M450.98,704.991c0-0.862,0.232-1.542,0.696-2.038s1.046-0.744,1.746-0.744
			c0.713,0,1.299,0.25,1.76,0.752c0.461,0.501,0.691,1.212,0.691,2.134c0,0.583-0.098,1.091-0.295,1.526
			c-0.197,0.435-0.485,0.771-0.864,1.011c-0.379,0.239-0.805,0.359-1.277,0.359c-0.67,0-1.247-0.23-1.73-0.691
			C451.221,706.837,450.98,706.068,450.98,704.991z"/>
	</g>
	
		<path id="path3641" inkscape:connector-curvature="0" fill="none" stroke="#000000" stroke-width="0.72" stroke-linecap="round" stroke-miterlimit="10" d="
		M468,725.52V714"/>
	
		<path id="path3643" inkscape:connector-curvature="0" fill="none" stroke="#000000" stroke-width="0.72" stroke-linecap="round" stroke-miterlimit="10" d="
		M468,714l10.08-5.76"/>
	
		<path id="path3645" inkscape:connector-curvature="0" fill="none" stroke="#000000" stroke-width="0.72" stroke-linecap="round" stroke-miterlimit="10" d="
		M487.2,708l10.08,6"/>
	
		<path id="path3647" inkscape:connector-curvature="0" fill="none" stroke="#000000" stroke-width="0.72" stroke-linecap="round" stroke-miterlimit="10" d="
		M497.28,714v16.8"/>
	
		<path id="path3649" inkscape:connector-curvature="0" fill="none" stroke="#000000" stroke-width="0.72" stroke-linecap="round" stroke-miterlimit="10" d="
		M493.92,715.68v13.44"/>
	
		<path id="path3651" inkscape:connector-curvature="0" fill="none" stroke="#000000" stroke-width="0.72" stroke-linecap="round" stroke-miterlimit="10" d="
		M497.28,730.8l-14.64,8.4"/>
	
		<path id="path3653" inkscape:connector-curvature="0" fill="none" stroke="#000000" stroke-width="0.72" stroke-linecap="round" stroke-miterlimit="10" d="
		M484.32,739.2v11.52"/>
	
		<path id="path3655" inkscape:connector-curvature="0" fill="none" stroke="#000000" stroke-width="0.72" stroke-linecap="round" stroke-miterlimit="10" d="
		M480.96,739.2v11.52"/>
	
		<path id="path3657" inkscape:connector-curvature="0" fill="none" stroke="#000000" stroke-width="0.72" stroke-linecap="round" stroke-miterlimit="10" d="
		M467.28,715.44l-8.88-5.28"/>
	
		<path id="path3659" inkscape:connector-curvature="0" fill="none" stroke="#000000" stroke-width="0.72" stroke-linecap="round" stroke-miterlimit="10" d="
		M468.96,712.56l-10.56-6.24"/>
	
		<path id="path3661" inkscape:connector-curvature="0" fill="none" stroke="#000000" stroke-width="0.72" stroke-linecap="round" stroke-miterlimit="10" d="
		M482.64,739.2l-10.08-6"/>
	<g enable-background="new    ">
		<path d="M117.441,733.68v7.158h0.947v-2.939h3.72v2.939h0.947v-7.158h-0.947v3.374h-3.72v-3.374H117.441z"/>
	</g>
	<g enable-background="new    ">
		<path d="M124.309,735.979l0.893,0.078c0.042-0.358,0.141-0.652,0.296-0.881c0.155-0.229,0.395-0.415,0.72-0.557
			c0.326-0.141,0.692-0.212,1.099-0.212c0.361,0,0.68,0.054,0.957,0.161c0.277,0.108,0.483,0.255,0.618,0.442
			c0.135,0.187,0.203,0.391,0.203,0.613c0,0.225-0.065,0.421-0.195,0.588c-0.13,0.168-0.345,0.308-0.644,0.422
			c-0.192,0.075-0.617,0.191-1.274,0.349c-0.657,0.158-1.118,0.307-1.382,0.447c-0.342,0.179-0.597,0.401-0.764,0.667
			c-0.168,0.265-0.251,0.562-0.251,0.891c0,0.361,0.102,0.699,0.308,1.013c0.205,0.314,0.504,0.552,0.898,0.715
			c0.394,0.163,0.832,0.244,1.314,0.244c0.531,0,0.998-0.086,1.404-0.256c0.405-0.171,0.717-0.422,0.935-0.754
			c0.218-0.332,0.335-0.708,0.351-1.128l-0.908-0.068c-0.049,0.453-0.214,0.794-0.496,1.025s-0.697,0.347-1.248,0.347
			c-0.573,0-0.99-0.105-1.252-0.315c-0.262-0.21-0.393-0.463-0.393-0.759c0-0.257,0.093-0.469,0.278-0.635
			c0.182-0.166,0.658-0.336,1.428-0.51c0.77-0.174,1.298-0.327,1.584-0.456c0.417-0.192,0.724-0.436,0.923-0.73
			c0.199-0.295,0.298-0.634,0.298-1.018c0-0.381-0.109-0.74-0.327-1.077c-0.218-0.337-0.532-0.599-0.94-0.786
			c-0.409-0.187-0.868-0.281-1.379-0.281c-0.648,0-1.19,0.094-1.628,0.283s-0.781,0.473-1.03,0.852
			C124.453,735.072,124.322,735.501,124.309,735.979z"/>
	</g>
	<g enable-background="new    ">
		<path d="M131.013,737.166c0,1.188,0.319,2.118,0.957,2.79c0.638,0.672,1.461,1.008,2.471,1.008c0.661,0,1.256-0.158,1.787-0.473
			c0.531-0.316,0.935-0.756,1.213-1.321c0.278-0.565,0.417-1.205,0.417-1.921c0-0.726-0.146-1.375-0.439-1.948
			c-0.293-0.573-0.708-1.006-1.245-1.301c-0.537-0.295-1.116-0.442-1.738-0.442c-0.674,0-1.276,0.163-1.806,0.488
			s-0.933,0.77-1.206,1.333C131.15,735.942,131.013,736.538,131.013,737.166z M131.99,737.151c0-0.862,0.232-1.542,0.696-2.038
			c0.464-0.496,1.046-0.744,1.745-0.744c0.713,0,1.299,0.25,1.76,0.752c0.461,0.501,0.691,1.212,0.691,2.134
			c0,0.583-0.099,1.091-0.296,1.526s-0.485,0.771-0.864,1.011c-0.379,0.239-0.805,0.359-1.277,0.359
			c-0.671,0-1.248-0.23-1.731-0.691S131.99,738.228,131.99,737.151z"/>
	</g>
	<g enable-background="new    ">
		<path d="M139.921,732.825l0.709,0.094c0.081-0.401,0.22-0.691,0.415-0.868c0.196-0.177,0.434-0.266,0.715-0.266
			c0.333,0,0.615,0.115,0.844,0.346c0.23,0.231,0.344,0.517,0.344,0.858c0,0.326-0.106,0.594-0.319,0.805
			c-0.213,0.211-0.483,0.317-0.811,0.317c-0.134,0-0.3-0.026-0.5-0.079l0.079,0.622c0.047-0.005,0.085-0.008,0.114-0.008
			c0.302,0,0.574,0.079,0.815,0.236s0.362,0.4,0.362,0.728c0,0.26-0.088,0.475-0.264,0.646c-0.176,0.171-0.403,0.256-0.681,0.256
			c-0.276,0-0.505-0.087-0.689-0.26c-0.184-0.173-0.302-0.433-0.354-0.78l-0.709,0.126c0.087,0.475,0.283,0.843,0.591,1.104
			c0.307,0.261,0.689,0.392,1.145,0.392c0.315,0,0.605-0.068,0.87-0.203c0.265-0.135,0.468-0.32,0.608-0.553
			c0.14-0.234,0.211-0.482,0.211-0.744c0-0.249-0.067-0.476-0.201-0.681c-0.134-0.205-0.332-0.368-0.595-0.488
			c0.341-0.079,0.606-0.242,0.795-0.49c0.189-0.248,0.283-0.558,0.283-0.931c0-0.504-0.184-0.931-0.551-1.281
			c-0.368-0.35-0.832-0.526-1.394-0.526c-0.506,0-0.927,0.151-1.262,0.453C140.159,731.954,139.968,732.345,139.921,732.825z"/>
	</g>
	<g enable-background="new    ">
		<path d="M140.604,742.446v0.713h2.177v-0.713H140.604z"/>
	</g>
	<g enable-background="new    ">
		<path d="M122.403,709.326c0,1.188,0.319,2.118,0.957,2.79c0.638,0.672,1.461,1.008,2.471,1.008c0.661,0,1.256-0.158,1.787-0.473
			c0.531-0.316,0.935-0.756,1.213-1.321c0.278-0.565,0.417-1.205,0.417-1.921c0-0.726-0.146-1.375-0.439-1.948
			c-0.293-0.573-0.708-1.006-1.245-1.301c-0.537-0.295-1.116-0.442-1.738-0.442c-0.674,0-1.276,0.163-1.806,0.488
			c-0.531,0.326-0.933,0.77-1.206,1.333C122.54,708.102,122.403,708.698,122.403,709.326z M123.38,709.311
			c0-0.862,0.232-1.542,0.696-2.038s1.046-0.744,1.745-0.744c0.713,0,1.299,0.251,1.76,0.752c0.461,0.501,0.691,1.212,0.691,2.134
			c0,0.583-0.099,1.091-0.296,1.526c-0.197,0.435-0.485,0.771-0.864,1.011c-0.379,0.239-0.805,0.359-1.277,0.359
			c-0.671,0-1.248-0.23-1.731-0.691C123.622,711.157,123.38,710.388,123.38,709.311z"/>
	</g>
	<g enable-background="new    ">
		<path d="M130.501,705.84v7.158h0.947v-2.939h3.72v2.939h0.947v-7.158h-0.947v3.374h-3.72v-3.374H130.501z"/>
	</g>
	<g enable-background="new    ">
		<path d="M139.5,714.92v0.713h2.177v-0.713H139.5z"/>
	</g>
	
		<path id="path3683" inkscape:connector-curvature="0" fill="none" stroke="#000000" stroke-width="0.72" stroke-linecap="round" stroke-miterlimit="10" d="
		M107.04,722.4h43.44"/>
	
		<path id="path3685" inkscape:connector-curvature="0" fill="none" stroke="#000000" stroke-width="0.72" stroke-linecap="round" stroke-miterlimit="10" d="
		M107.04,725.28h43.44"/>
	
		<path id="path3687" inkscape:connector-curvature="0" stroke="#000000" stroke-width="0.72" stroke-linecap="round" stroke-miterlimit="10" d="
		M150.48,725.28l-7.92,1.92l1.44-1.92H150.48z"/>
	
		<path id="path3689" inkscape:connector-curvature="0" stroke="#000000" stroke-width="0.72" stroke-linecap="round" stroke-miterlimit="10" d="
		M107.04,722.4l7.92-1.92l-1.44,1.92H107.04z"/>
	
		<path id="path3691" inkscape:connector-curvature="0" fill="none" stroke="#000000" stroke-width="0.72" stroke-linecap="round" stroke-miterlimit="10" d="
		M394.08,721.44h43.44"/>
	
		<path id="path3693" inkscape:connector-curvature="0" fill="none" stroke="#000000" stroke-width="0.72" stroke-linecap="round" stroke-miterlimit="10" d="
		M394.08,724.32h43.44"/>
	
		<path id="path3695" inkscape:connector-curvature="0" stroke="#000000" stroke-width="0.72" stroke-linecap="round" stroke-miterlimit="10" d="
		M437.52,724.32l-7.92,1.92l1.44-1.92H437.52z"/>
	
		<path id="path3697" inkscape:connector-curvature="0" stroke="#000000" stroke-width="0.72" stroke-linecap="round" stroke-miterlimit="10" d="
		M394.08,721.44l7.92-1.92l-1.44,1.92H394.08z"/>
	<g enable-background="new    ">
		<path d="M407.763,736.687c0,1.188,0.319,2.118,0.957,2.79c0.638,0.672,1.461,1.008,2.47,1.008c0.661,0,1.256-0.158,1.787-0.473
			c0.531-0.316,0.935-0.756,1.214-1.321c0.278-0.565,0.417-1.205,0.417-1.921c0-0.726-0.147-1.375-0.439-1.948
			c-0.293-0.573-0.708-1.006-1.245-1.301c-0.537-0.295-1.116-0.442-1.738-0.442c-0.674,0-1.276,0.163-1.807,0.488
			c-0.531,0.326-0.933,0.77-1.206,1.333C407.9,735.463,407.763,736.058,407.763,736.687z M408.74,736.672
			c0-0.862,0.232-1.542,0.696-2.038s1.046-0.744,1.746-0.744c0.713,0,1.299,0.25,1.76,0.752c0.461,0.501,0.691,1.212,0.691,2.134
			c0,0.583-0.098,1.091-0.295,1.526c-0.197,0.435-0.485,0.771-0.864,1.011c-0.379,0.239-0.805,0.359-1.277,0.359
			c-0.67,0-1.247-0.23-1.73-0.691C408.981,738.518,408.74,737.749,408.74,736.672z"/>
	</g>
	<g enable-background="new    ">
		<path d="M415.861,733.201v7.158h0.947v-2.939h3.72v2.939h0.947v-7.158h-0.947v3.374h-3.72v-3.374H415.861z"/>
	</g>
	<g enable-background="new    ">
		<path d="M424.549,742.29v0.713h2.177v-0.713H424.549z"/>
	</g>
	<g enable-background="new    ">
		<path d="M403.041,705.36v7.158h0.947v-2.939h3.72v2.939h0.947v-7.158h-0.947v3.374h-3.72v-3.374H403.041z"/>
	</g>
	<g enable-background="new    ">
		<path d="M409.909,707.66l0.893,0.078c0.042-0.358,0.141-0.652,0.295-0.881c0.155-0.229,0.395-0.415,0.72-0.557
			c0.325-0.142,0.691-0.212,1.098-0.212c0.361,0,0.68,0.054,0.957,0.161c0.277,0.107,0.483,0.255,0.618,0.442
			c0.135,0.187,0.203,0.391,0.203,0.613c0,0.225-0.065,0.421-0.195,0.588c-0.13,0.168-0.345,0.308-0.644,0.422
			c-0.192,0.075-0.617,0.191-1.275,0.349c-0.657,0.158-1.118,0.307-1.381,0.447c-0.342,0.179-0.596,0.401-0.764,0.667
			c-0.168,0.265-0.251,0.562-0.251,0.891c0,0.361,0.103,0.699,0.308,1.013c0.205,0.314,0.504,0.552,0.899,0.715
			c0.394,0.163,0.831,0.244,1.313,0.244c0.531,0,0.999-0.086,1.404-0.256c0.405-0.171,0.717-0.422,0.935-0.754
			c0.218-0.332,0.335-0.708,0.352-1.128l-0.908-0.068c-0.049,0.453-0.214,0.794-0.496,1.025c-0.281,0.231-0.697,0.347-1.247,0.347
			c-0.573,0-0.991-0.105-1.253-0.315c-0.262-0.21-0.393-0.463-0.393-0.759c0-0.257,0.093-0.469,0.279-0.635
			c0.182-0.166,0.658-0.336,1.428-0.51c0.77-0.174,1.298-0.327,1.584-0.456c0.417-0.192,0.724-0.436,0.923-0.73
			c0.198-0.295,0.298-0.634,0.298-1.018c0-0.381-0.109-0.74-0.327-1.077c-0.218-0.337-0.531-0.599-0.939-0.786
			c-0.408-0.187-0.869-0.281-1.379-0.281c-0.648,0-1.19,0.094-1.628,0.283c-0.438,0.189-0.781,0.473-1.031,0.852
			S409.922,707.182,409.909,707.66z"/>
	</g>
	<g enable-background="new    ">
		<path d="M416.613,708.846c0,1.188,0.319,2.118,0.957,2.79c0.638,0.672,1.461,1.008,2.47,1.008c0.661,0,1.256-0.158,1.787-0.473
			s0.935-0.756,1.214-1.321c0.278-0.565,0.417-1.205,0.417-1.921c0-0.726-0.147-1.375-0.439-1.948s-0.708-1.006-1.245-1.301
			c-0.537-0.295-1.116-0.442-1.738-0.442c-0.674,0-1.276,0.163-1.807,0.488c-0.531,0.326-0.933,0.77-1.206,1.333
			C416.75,707.622,416.613,708.218,416.613,708.846z M417.589,708.832c0-0.862,0.232-1.542,0.696-2.038
			c0.464-0.496,1.046-0.744,1.746-0.744c0.713,0,1.299,0.251,1.76,0.752c0.461,0.501,0.691,1.212,0.691,2.134
			c0,0.583-0.098,1.091-0.295,1.526c-0.197,0.435-0.485,0.771-0.864,1.011c-0.379,0.239-0.805,0.359-1.277,0.359
			c-0.67,0-1.247-0.23-1.73-0.691C417.831,710.678,417.589,709.909,417.589,708.832z"/>
	</g>
	<g enable-background="new    ">
		<path d="M424.641,702.665l0.709,0.094c0.081-0.401,0.22-0.691,0.415-0.868c0.195-0.177,0.434-0.266,0.715-0.266
			c0.333,0,0.615,0.115,0.844,0.346c0.23,0.231,0.344,0.517,0.344,0.858c0,0.326-0.106,0.594-0.319,0.805
			c-0.213,0.211-0.483,0.317-0.811,0.317c-0.134,0-0.301-0.026-0.5-0.079l0.079,0.622c0.047-0.005,0.085-0.008,0.114-0.008
			c0.302,0,0.573,0.079,0.814,0.236c0.242,0.157,0.362,0.4,0.362,0.728c0,0.26-0.088,0.475-0.264,0.646
			c-0.176,0.171-0.403,0.256-0.681,0.256c-0.276,0-0.505-0.087-0.689-0.26c-0.184-0.173-0.302-0.433-0.354-0.78l-0.709,0.126
			c0.087,0.475,0.283,0.843,0.591,1.104s0.689,0.392,1.146,0.392c0.315,0,0.605-0.068,0.87-0.203
			c0.265-0.135,0.468-0.32,0.608-0.553c0.141-0.234,0.211-0.482,0.211-0.744c0-0.249-0.067-0.476-0.201-0.681
			c-0.134-0.205-0.332-0.368-0.595-0.488c0.342-0.079,0.606-0.242,0.795-0.49c0.189-0.248,0.283-0.558,0.283-0.931
			c0-0.504-0.184-0.931-0.551-1.281c-0.367-0.35-0.832-0.526-1.393-0.526c-0.507,0-0.927,0.151-1.262,0.453
			C424.88,701.794,424.689,702.185,424.641,702.665z"/>
	</g>
	<g enable-background="new    ">
		<path d="M426.823,712.557v0.713H429v-0.713H426.823z"/>
	</g>
	
		<path id="path3719" inkscape:connector-curvature="0" fill="none" stroke="#000000" stroke-width="0.72" stroke-linecap="round" stroke-miterlimit="10" d="
		M252,722.4h42.48"/>
	
		<path id="path3721" inkscape:connector-curvature="0" stroke="#000000" stroke-width="0.72" stroke-linecap="round" stroke-miterlimit="10" d="
		M286.56,724.32l7.92-1.92l-7.92-1.92l1.44,1.92L286.56,724.32z"/>
	
		<path id="path3723" inkscape:connector-curvature="0" fill="none" stroke="#000000" stroke-width="0.72" stroke-linecap="round" stroke-miterlimit="10" d="
		M260.88,722.4h1.68h1.92l1.68-0.24l1.92-0.72l1.68-0.48l1.44-0.96l1.44-0.96l1.44-1.2l1.2-1.44l0.96-1.2l0.96-1.68l0.72-1.68
		l0.48-1.68l0.48-1.68v-0.72"/>
	<g enable-background="new    ">
		<path d="M264.801,731.28v7.158h0.947v-2.939h3.72v2.939h0.947v-7.158h-0.947v3.374h-3.72v-3.374H264.801z"/>
	</g>
	<g enable-background="new    ">
		<path d="M274.377,728.778v-0.507h-2.839c-0.004,0.127,0.017,0.249,0.061,0.366c0.072,0.193,0.188,0.384,0.347,0.571
			c0.159,0.187,0.389,0.404,0.69,0.65c0.467,0.383,0.782,0.686,0.946,0.91c0.164,0.224,0.246,0.435,0.246,0.634
			c0,0.209-0.075,0.385-0.224,0.529c-0.149,0.143-0.344,0.215-0.584,0.215c-0.254,0-0.457-0.076-0.609-0.228
			c-0.153-0.152-0.229-0.363-0.231-0.633l-0.542,0.056c0.037,0.404,0.177,0.712,0.419,0.924c0.242,0.212,0.567,0.318,0.975,0.318
			c0.412,0,0.738-0.114,0.978-0.343c0.24-0.228,0.36-0.512,0.36-0.849c0-0.172-0.035-0.341-0.105-0.507
			c-0.07-0.166-0.187-0.341-0.35-0.524c-0.163-0.184-0.434-0.436-0.813-0.756c-0.316-0.266-0.52-0.446-0.609-0.541
			c-0.09-0.095-0.164-0.19-0.223-0.285H274.377z"/>
	</g>
	<g enable-background="new    ">
		<path d="M275.283,734.766c0,1.188,0.319,2.118,0.957,2.79c0.638,0.672,1.461,1.008,2.47,1.008c0.661,0,1.256-0.158,1.787-0.473
			c0.531-0.316,0.935-0.756,1.214-1.321c0.278-0.565,0.417-1.205,0.417-1.921c0-0.726-0.147-1.375-0.439-1.948
			c-0.293-0.573-0.708-1.006-1.245-1.301c-0.537-0.295-1.116-0.442-1.738-0.442c-0.674,0-1.276,0.163-1.807,0.488
			c-0.531,0.326-0.933,0.77-1.206,1.333C275.42,733.542,275.283,734.138,275.283,734.766z M276.259,734.751
			c0-0.862,0.232-1.542,0.696-2.038c0.464-0.496,1.046-0.744,1.746-0.744c0.713,0,1.299,0.25,1.76,0.752s0.691,1.212,0.691,2.134
			c0,0.583-0.098,1.091-0.295,1.526c-0.197,0.435-0.485,0.771-0.864,1.011c-0.379,0.239-0.805,0.359-1.277,0.359
			c-0.67,0-1.247-0.23-1.73-0.691C276.501,736.598,276.259,735.829,276.259,734.751z"/>
	</g>
	<g enable-background="new    ">
		<path d="M269.321,685.44v7.158h0.971l3.759-5.62v5.62h0.908v-7.158h-0.971l-3.759,5.624v-5.624H269.321z"/>
	</g>
	<g enable-background="new    ">
		<path d="M276.561,685.44v7.158h0.947v-2.939h3.72v2.939h0.947v-7.158h-0.947v3.374h-3.72v-3.374H276.561z"/>
	</g>
	<g enable-background="new    ">
		<path d="M285.546,682.8v1.371h-2.484v0.645l2.613,3.71h0.574v-3.71h0.773v-0.645h-0.773V682.8H285.546z M285.546,684.815v2.582
			l-1.793-2.582H285.546z"/>
	</g>
	<g enable-background="new    ">
		<path d="M284.963,693.326v1.57h-1.558v0.656h1.558v1.558h0.664v-1.558h1.558v-0.656h-1.558v-1.57H284.963z"/>
	</g>
	<g enable-background="new    ">
		<path d="M42.291,664.919l1.037-0.135c-0.113-0.715-0.403-1.274-0.87-1.678c-0.467-0.404-1.04-0.606-1.72-0.606
			c-0.852,0-1.536,0.278-2.053,0.835c-0.518,0.557-0.776,1.354-0.776,2.393c0,0.672,0.111,1.26,0.334,1.763
			c0.223,0.504,0.562,0.882,1.017,1.134c0.455,0.252,0.95,0.378,1.485,0.378c0.676,0,1.228-0.171,1.658-0.513
			c0.43-0.342,0.705-0.827,0.826-1.456l-1.025-0.158c-0.098,0.418-0.27,0.733-0.518,0.943c-0.248,0.211-0.548,0.316-0.899,0.316
			c-0.531,0-0.963-0.19-1.295-0.571s-0.498-0.983-0.498-1.807c0-0.836,0.16-1.443,0.48-1.822c0.32-0.379,0.738-0.568,1.254-0.568
			c0.414,0,0.76,0.127,1.037,0.381C42.041,664.001,42.217,664.392,42.291,664.919z"/>
	</g>
	<g enable-background="new    ">
		<path d="M44.184,660.244l-0.117,0.99c0.23-0.062,0.431-0.094,0.603-0.094c0.234,0,0.422,0.039,0.563,0.117
			c0.141,0.078,0.256,0.188,0.346,0.328c0.066,0.106,0.174,0.367,0.322,0.785c0.019,0.059,0.051,0.144,0.094,0.258l-2.361,6.234
			h1.137l1.295-3.603c0.168-0.457,0.318-0.938,0.451-1.441c0.121,0.484,0.266,0.957,0.434,1.418l1.33,3.627h1.055l-2.367-6.328
			c-0.254-0.683-0.451-1.154-0.592-1.412c-0.188-0.347-0.402-0.602-0.644-0.765c-0.242-0.162-0.531-0.243-0.867-0.243
			C44.661,660.115,44.434,660.158,44.184,660.244z"/>
	</g>
	<g enable-background="new    ">
		<path d="M52.533,663.583l0.152-0.931c-0.297-0.062-0.563-0.094-0.797-0.094c-0.383,0-0.679,0.061-0.891,0.182
			c-0.211,0.121-0.359,0.28-0.445,0.477c-0.086,0.197-0.129,0.612-0.129,1.245v3.58h-0.773v0.82h0.773v1.541l1.049,0.633v-2.174
			h1.061v-0.82h-1.061v-3.638c0-0.301,0.018-0.494,0.056-0.58c0.037-0.086,0.098-0.155,0.182-0.205
			c0.084-0.051,0.204-0.076,0.36-0.076C52.188,663.542,52.342,663.556,52.533,663.583z"/>
	</g>
	<g enable-background="new    ">
		<path d="M53.174,665.751c0,1.152,0.32,2.006,0.961,2.56c0.535,0.461,1.187,0.691,1.957,0.691c0.856,0,1.555-0.28,2.097-0.841
			c0.543-0.561,0.814-1.335,0.814-2.323c0-0.801-0.12-1.431-0.36-1.89c-0.24-0.459-0.59-0.815-1.048-1.069
			c-0.459-0.254-0.96-0.381-1.503-0.381c-0.871,0-1.575,0.279-2.112,0.838C53.443,663.896,53.174,664.7,53.174,665.751z
			 M54.258,665.751c0-0.797,0.174-1.393,0.521-1.79s0.785-0.595,1.312-0.595c0.523,0,0.959,0.199,1.307,0.598
			c0.347,0.398,0.521,1.006,0.521,1.822c0,0.769-0.175,1.352-0.524,1.749c-0.35,0.396-0.784,0.595-1.304,0.595
			c-0.527,0-0.965-0.197-1.312-0.592S54.258,666.548,54.258,665.751z"/>
	</g>
	<g enable-background="new    ">
		<path d="M59.817,664.497l1.043,0.164c0.059-0.418,0.222-0.738,0.489-0.961c0.267-0.223,0.641-0.334,1.122-0.334
			c0.484,0,0.844,0.099,1.078,0.296c0.234,0.197,0.351,0.429,0.351,0.694c0,0.238-0.103,0.426-0.31,0.563
			c-0.145,0.094-0.504,0.213-1.078,0.357c-0.773,0.195-1.31,0.364-1.608,0.507c-0.299,0.142-0.525,0.34-0.68,0.592
			c-0.154,0.252-0.232,0.53-0.232,0.835c0,0.277,0.063,0.534,0.19,0.77c0.127,0.236,0.3,0.432,0.518,0.589
			c0.164,0.121,0.388,0.224,0.671,0.308c0.283,0.084,0.587,0.126,0.911,0.126c0.488,0,0.917-0.07,1.286-0.211
			c0.369-0.141,0.642-0.331,0.817-0.571c0.176-0.24,0.297-0.562,0.363-0.964l-1.031-0.141c-0.047,0.32-0.183,0.57-0.407,0.75
			c-0.225,0.18-0.542,0.27-0.952,0.27c-0.484,0-0.83-0.08-1.037-0.24c-0.207-0.16-0.311-0.348-0.311-0.562
			c0-0.137,0.043-0.26,0.129-0.369c0.086-0.113,0.221-0.207,0.404-0.281c0.105-0.039,0.416-0.129,0.932-0.27
			c0.746-0.199,1.266-0.362,1.561-0.489c0.295-0.127,0.526-0.312,0.694-0.554c0.168-0.242,0.252-0.543,0.252-0.902
			c0-0.352-0.102-0.683-0.308-0.993c-0.205-0.31-0.501-0.551-0.888-0.721c-0.387-0.17-0.824-0.255-1.312-0.255
			c-0.809,0-1.425,0.168-1.848,0.504C60.205,663.339,59.934,663.837,59.817,664.497z"/>
	</g>
	<g enable-background="new    ">
		<path d="M66.245,670.016v1.213h1.055v-1.213H66.245z M66.245,662.64v6.222h1.055v-6.222H66.245z"/>
	</g>
	<g enable-background="new    ">
		<path d="M68.903,662.64v6.222h0.949v-0.885c0.457,0.683,1.117,1.025,1.98,1.025c0.375,0,0.72-0.067,1.034-0.202
			c0.314-0.135,0.55-0.312,0.706-0.53c0.156-0.219,0.266-0.478,0.328-0.779c0.039-0.195,0.059-0.537,0.059-1.025v-3.826h-1.055
			v3.785c0,0.43-0.041,0.751-0.123,0.964c-0.082,0.213-0.227,0.383-0.436,0.51c-0.209,0.127-0.454,0.19-0.735,0.19
			c-0.449,0-0.837-0.143-1.163-0.428c-0.326-0.285-0.489-0.826-0.489-1.623v-3.398H68.903z"/>
	</g>
	<g enable-background="new    ">
		<path d="M79.834,664.644l1.09-0.135c-0.172-0.637-0.49-1.131-0.955-1.482c-0.465-0.351-1.059-0.527-1.781-0.527
			c-0.91,0-1.632,0.28-2.165,0.841c-0.533,0.561-0.8,1.346-0.8,2.358c0,1.047,0.269,1.859,0.808,2.437
			c0.539,0.578,1.238,0.867,2.097,0.867c0.832,0,1.512-0.283,2.039-0.849c0.527-0.566,0.791-1.363,0.791-2.39
			c0-0.062-0.002-0.156-0.006-0.281h-4.64c0.039-0.684,0.233-1.207,0.58-1.57c0.347-0.363,0.781-0.545,1.3-0.545
			c0.387,0,0.717,0.102,0.99,0.305C79.457,663.874,79.674,664.198,79.834,664.644z M76.371,666.349h3.474
			c-0.047,0.523-0.18,0.916-0.398,1.177c-0.336,0.406-0.772,0.61-1.307,0.61c-0.484,0-0.892-0.162-1.221-0.487
			C76.589,667.325,76.407,666.892,76.371,666.349z"/>
	</g>
	<g enable-background="new    ">
		<path d="M180.747,670.679l1.037-0.135c-0.113-0.715-0.403-1.274-0.87-1.678c-0.467-0.404-1.04-0.606-1.72-0.606
			c-0.851,0-1.536,0.278-2.053,0.835c-0.518,0.557-0.777,1.354-0.777,2.394c0,0.672,0.112,1.26,0.334,1.763
			c0.222,0.504,0.562,0.882,1.016,1.134c0.455,0.252,0.95,0.378,1.485,0.378c0.676,0,1.228-0.171,1.658-0.513
			s0.705-0.827,0.826-1.456l-1.025-0.158c-0.098,0.418-0.271,0.733-0.519,0.943s-0.548,0.316-0.899,0.316
			c-0.532,0-0.963-0.19-1.295-0.571c-0.332-0.381-0.498-0.983-0.498-1.807c0-0.836,0.16-1.443,0.48-1.822
			c0.32-0.379,0.738-0.568,1.254-0.568c0.414,0,0.759,0.127,1.037,0.381C180.497,669.761,180.673,670.152,180.747,670.679z"/>
	</g>
	<g enable-background="new    ">
		<path d="M182.64,666.004l-0.117,0.99c0.23-0.062,0.432-0.094,0.603-0.094c0.234,0,0.422,0.039,0.562,0.117
			c0.141,0.078,0.256,0.188,0.345,0.328c0.066,0.106,0.174,0.367,0.322,0.785c0.02,0.059,0.051,0.144,0.094,0.258l-2.361,6.234
			h1.136l1.295-3.603c0.168-0.457,0.318-0.938,0.451-1.441c0.121,0.484,0.266,0.957,0.434,1.418l1.33,3.627h1.055l-2.367-6.328
			c-0.254-0.683-0.451-1.154-0.592-1.412c-0.188-0.347-0.402-0.602-0.644-0.765c-0.242-0.162-0.532-0.243-0.867-0.243
			C183.116,665.875,182.89,665.918,182.64,666.004z"/>
	</g>
	<g enable-background="new    ">
		<path d="M190.99,669.343l0.152-0.931c-0.297-0.062-0.563-0.094-0.797-0.094c-0.383,0-0.68,0.061-0.89,0.182
			c-0.211,0.121-0.36,0.28-0.445,0.477c-0.086,0.197-0.129,0.612-0.129,1.245v3.58h-0.773v0.82h0.773v1.541l1.049,0.633v-2.174
			h1.061v-0.82h-1.061v-3.638c0-0.301,0.019-0.494,0.056-0.58c0.037-0.086,0.097-0.154,0.182-0.205s0.204-0.076,0.36-0.076
			C190.644,669.302,190.798,669.316,190.99,669.343z"/>
	</g>
	<g enable-background="new    ">
		<path d="M191.631,671.511c0,1.152,0.32,2.006,0.961,2.56c0.535,0.461,1.188,0.691,1.957,0.691c0.855,0,1.555-0.28,2.098-0.841
			c0.543-0.561,0.814-1.335,0.814-2.323c0-0.801-0.12-1.431-0.36-1.89c-0.24-0.459-0.59-0.815-1.049-1.069
			c-0.459-0.254-0.96-0.381-1.503-0.381c-0.871,0-1.575,0.279-2.112,0.838C191.899,669.656,191.631,670.46,191.631,671.511z
			 M192.714,671.511c0-0.797,0.174-1.393,0.521-1.79c0.348-0.396,0.785-0.595,1.313-0.595c0.524,0,0.959,0.199,1.307,0.598
			c0.347,0.398,0.521,1.006,0.521,1.822c0,0.769-0.175,1.352-0.524,1.749c-0.349,0.396-0.784,0.595-1.304,0.595
			c-0.527,0-0.965-0.197-1.313-0.592C192.888,672.904,192.714,672.308,192.714,671.511z"/>
	</g>
	<g enable-background="new    ">
		<path d="M198.273,670.257l1.043,0.164c0.059-0.418,0.221-0.738,0.489-0.961c0.268-0.223,0.642-0.334,1.122-0.334
			c0.484,0,0.844,0.099,1.078,0.296c0.235,0.197,0.352,0.429,0.352,0.694c0,0.238-0.104,0.426-0.311,0.562
			c-0.145,0.094-0.504,0.213-1.078,0.357c-0.773,0.195-1.309,0.364-1.608,0.507c-0.299,0.142-0.525,0.34-0.68,0.592
			c-0.154,0.252-0.231,0.53-0.231,0.835c0,0.277,0.063,0.534,0.19,0.77c0.127,0.236,0.3,0.432,0.519,0.589
			c0.164,0.121,0.387,0.224,0.671,0.308c0.283,0.084,0.587,0.126,0.911,0.126c0.488,0,0.917-0.07,1.286-0.211
			c0.369-0.141,0.642-0.331,0.817-0.571c0.176-0.24,0.297-0.562,0.363-0.964l-1.031-0.141c-0.047,0.32-0.183,0.57-0.407,0.75
			c-0.224,0.18-0.542,0.27-0.952,0.27c-0.484,0-0.83-0.08-1.037-0.24c-0.207-0.16-0.311-0.348-0.311-0.562
			c0-0.137,0.043-0.26,0.129-0.369c0.086-0.113,0.22-0.207,0.404-0.281c0.105-0.039,0.416-0.129,0.932-0.27
			c0.746-0.199,1.266-0.362,1.561-0.489c0.295-0.127,0.527-0.312,0.694-0.554s0.252-0.543,0.252-0.902
			c0-0.352-0.102-0.683-0.308-0.993c-0.205-0.31-0.501-0.551-0.887-0.721c-0.387-0.17-0.824-0.255-1.313-0.255
			c-0.809,0-1.425,0.168-1.848,0.504C198.661,669.099,198.39,669.597,198.273,670.257z"/>
	</g>
	<g enable-background="new    ">
		<path d="M204.701,675.776v1.213h1.055v-1.213H204.701z M204.701,668.4v6.222h1.055V668.4H204.701z"/>
	</g>
	<g enable-background="new    ">
		<path d="M207.359,668.4v6.222h0.949v-0.885c0.457,0.683,1.117,1.025,1.98,1.025c0.375,0,0.719-0.067,1.034-0.202
			c0.314-0.135,0.55-0.312,0.706-0.53c0.156-0.219,0.266-0.478,0.328-0.779c0.039-0.195,0.059-0.537,0.059-1.025V668.4h-1.055v3.785
			c0,0.43-0.041,0.751-0.123,0.964c-0.082,0.213-0.227,0.383-0.437,0.51c-0.209,0.127-0.454,0.19-0.735,0.19
			c-0.449,0-0.837-0.143-1.163-0.428c-0.326-0.285-0.489-0.826-0.489-1.623V668.4H207.359z"/>
	</g>
	<g enable-background="new    ">
		<path d="M218.29,670.404l1.09-0.135c-0.172-0.637-0.49-1.131-0.955-1.482c-0.465-0.351-1.059-0.527-1.781-0.527
			c-0.91,0-1.632,0.28-2.165,0.841s-0.8,1.346-0.8,2.358c0,1.047,0.269,1.859,0.809,2.437c0.539,0.578,1.238,0.867,2.098,0.867
			c0.832,0,1.511-0.283,2.039-0.849c0.527-0.566,0.791-1.363,0.791-2.39c0-0.062-0.002-0.156-0.006-0.281h-4.64
			c0.039-0.684,0.232-1.207,0.58-1.57c0.347-0.363,0.781-0.545,1.301-0.545c0.386,0,0.717,0.102,0.99,0.305
			C217.913,669.634,218.13,669.958,218.29,670.404z M214.828,672.109h3.474c-0.047,0.523-0.18,0.916-0.399,1.177
			c-0.336,0.406-0.771,0.61-1.307,0.61c-0.484,0-0.891-0.162-1.221-0.487C215.046,673.085,214.863,672.652,214.828,672.109z"/>
	</g>
	<g enable-background="new    ">
		<path d="M169.569,656.578l1.043,0.164c0.059-0.418,0.221-0.738,0.489-0.961c0.268-0.223,0.642-0.334,1.122-0.334
			c0.484,0,0.844,0.099,1.078,0.296c0.235,0.197,0.352,0.429,0.352,0.694c0,0.238-0.104,0.426-0.311,0.562
			c-0.145,0.094-0.504,0.213-1.078,0.357c-0.773,0.195-1.309,0.364-1.608,0.507c-0.299,0.143-0.525,0.34-0.68,0.592
			c-0.154,0.252-0.231,0.53-0.231,0.835c0,0.277,0.063,0.534,0.19,0.77c0.127,0.236,0.3,0.432,0.519,0.589
			c0.164,0.121,0.387,0.224,0.671,0.308c0.283,0.084,0.587,0.126,0.911,0.126c0.488,0,0.917-0.07,1.286-0.211
			c0.369-0.141,0.642-0.331,0.817-0.571s0.297-0.562,0.363-0.964l-1.031-0.141c-0.047,0.32-0.183,0.57-0.407,0.75
			c-0.224,0.18-0.542,0.27-0.952,0.27c-0.484,0-0.83-0.08-1.037-0.24c-0.207-0.16-0.311-0.348-0.311-0.562
			c0-0.137,0.043-0.26,0.129-0.369c0.086-0.113,0.22-0.207,0.404-0.281c0.105-0.039,0.416-0.129,0.932-0.27
			c0.746-0.199,1.266-0.362,1.561-0.489c0.295-0.127,0.527-0.312,0.694-0.554c0.168-0.242,0.252-0.543,0.252-0.902
			c0-0.352-0.102-0.683-0.308-0.993c-0.205-0.311-0.501-0.551-0.887-0.721c-0.387-0.17-0.824-0.255-1.313-0.255
			c-0.809,0-1.425,0.168-1.848,0.504C169.957,655.42,169.686,655.918,169.569,656.578z"/>
	</g>
	<g enable-background="new    ">
		<path d="M180.069,654.721v0.914c-0.484-0.703-1.142-1.054-1.974-1.054c-0.367,0-0.71,0.07-1.028,0.211
			c-0.318,0.141-0.555,0.317-0.709,0.53c-0.154,0.213-0.263,0.473-0.325,0.782c-0.043,0.207-0.064,0.535-0.064,0.984v3.855h1.054
			v-3.451c0-0.551,0.022-0.922,0.064-1.113c0.066-0.277,0.207-0.495,0.422-0.653c0.215-0.158,0.48-0.237,0.797-0.237
			c0.316,0,0.613,0.081,0.89,0.243c0.278,0.162,0.473,0.383,0.589,0.662c0.115,0.279,0.173,0.684,0.173,1.216v3.334h1.055v-6.222
			H180.069z"/>
	</g>
	<g enable-background="new    ">
		<path d="M182.64,654.721v8.589h1.054v-8.589H182.64z"/>
	</g>
	<g enable-background="new    ">
		<path d="M185.327,652.336v8.607h0.961v-0.809c0.226,0.316,0.482,0.554,0.767,0.712s0.631,0.237,1.037,0.237
			c0.532,0,1-0.137,1.406-0.41c0.407-0.274,0.713-0.659,0.92-1.157c0.207-0.498,0.31-1.044,0.31-1.638
			c0-0.637-0.114-1.21-0.343-1.72c-0.228-0.51-0.561-0.9-0.996-1.172c-0.436-0.271-0.893-0.407-1.374-0.407
			c-0.351,0-0.667,0.074-0.946,0.222c-0.28,0.148-0.509,0.336-0.689,0.562v-3.029H185.327z M186.282,657.796
			c0-0.801,0.162-1.392,0.486-1.775c0.324-0.383,0.717-0.574,1.178-0.574c0.469,0,0.87,0.198,1.204,0.595
			c0.334,0.396,0.501,1.011,0.501,1.843c0,0.793-0.163,1.387-0.489,1.781c-0.326,0.395-0.716,0.592-1.169,0.592
			c-0.449,0-0.846-0.21-1.192-0.63C186.455,659.207,186.282,658.597,186.282,657.796z"/>
	</g>
	<g enable-background="new    ">
		<path d="M191.999,654.721v8.589h1.055v-3.082c0.492,0.57,1.113,0.855,1.863,0.855c0.461,0,0.861-0.091,1.201-0.272
			c0.34-0.182,0.583-0.433,0.729-0.753c0.147-0.32,0.22-0.785,0.22-1.394v-3.943h-1.055v3.943c0,0.527-0.114,0.911-0.343,1.151
			c-0.229,0.24-0.552,0.36-0.97,0.36c-0.312,0-0.606-0.081-0.881-0.243c-0.276-0.162-0.472-0.382-0.589-0.659
			s-0.176-0.66-0.176-1.148v-3.404H191.999z"/>
	</g>
	<g enable-background="new    ">
		<path d="M198.279,657.832c0,1.152,0.32,2.006,0.961,2.56c0.535,0.461,1.188,0.691,1.957,0.691c0.855,0,1.555-0.28,2.097-0.841
			c0.543-0.561,0.814-1.335,0.814-2.323c0-0.801-0.12-1.431-0.36-1.89s-0.59-0.815-1.049-1.069c-0.459-0.254-0.96-0.381-1.503-0.381
			c-0.871,0-1.575,0.279-2.112,0.838C198.547,655.976,198.279,656.781,198.279,657.832z M199.362,657.832
			c0-0.797,0.174-1.393,0.521-1.79c0.348-0.396,0.785-0.595,1.313-0.595c0.524,0,0.959,0.199,1.307,0.598
			c0.347,0.398,0.521,1.006,0.521,1.822c0,0.769-0.175,1.352-0.524,1.749c-0.349,0.396-0.784,0.595-1.304,0.595
			c-0.527,0-0.965-0.197-1.313-0.592C199.536,659.224,199.362,658.628,199.362,657.832z"/>
	</g>
	<g enable-background="new    ">
		<path d="M205.343,654.721v6.222h0.949v-0.885c0.457,0.683,1.117,1.025,1.98,1.025c0.375,0,0.72-0.067,1.034-0.202
			c0.314-0.135,0.55-0.312,0.706-0.53c0.156-0.219,0.266-0.478,0.328-0.779c0.039-0.195,0.059-0.537,0.059-1.025v-3.826h-1.055
			v3.785c0,0.43-0.041,0.751-0.123,0.964c-0.082,0.213-0.227,0.383-0.437,0.51c-0.209,0.127-0.454,0.19-0.735,0.19
			c-0.449,0-0.837-0.143-1.163-0.428c-0.326-0.285-0.489-0.826-0.489-1.623v-3.398H205.343z"/>
	</g>
	<g enable-background="new    ">
		<path d="M216.075,655.488c-0.39-0.332-0.766-0.566-1.128-0.703c-0.362-0.137-0.749-0.205-1.163-0.205
			c-0.684,0-1.209,0.167-1.576,0.501c-0.367,0.334-0.551,0.761-0.551,1.28c0,0.305,0.069,0.583,0.208,0.835
			c0.138,0.252,0.32,0.454,0.545,0.606c0.224,0.152,0.477,0.268,0.758,0.346c0.207,0.055,0.52,0.107,0.938,0.158
			c0.851,0.101,1.478,0.222,1.881,0.363c0.003,0.144,0.006,0.236,0.006,0.275c0,0.43-0.1,0.732-0.299,0.908
			c-0.269,0.238-0.67,0.358-1.201,0.358c-0.496,0-0.862-0.087-1.098-0.261c-0.237-0.174-0.411-0.481-0.525-0.923l-1.031,0.141
			c0.094,0.441,0.248,0.798,0.463,1.069c0.215,0.271,0.526,0.48,0.932,0.627c0.407,0.146,0.877,0.219,1.412,0.219
			c0.531,0,0.963-0.062,1.295-0.188c0.332-0.125,0.576-0.282,0.733-0.471c0.156-0.189,0.265-0.429,0.328-0.718
			c0.035-0.18,0.053-0.504,0.053-0.972v-1.406c0-0.98,0.023-1.6,0.067-1.86c0.045-0.26,0.134-0.509,0.267-0.747h-1.101
			C216.177,654.939,216.107,655.195,216.075,655.488z M215.988,657.843c-0.383-0.156-0.957-0.289-1.722-0.398
			c-0.434-0.063-0.74-0.133-0.92-0.211c-0.18-0.078-0.318-0.192-0.416-0.343c-0.097-0.151-0.146-0.317-0.146-0.501
			c0-0.281,0.106-0.516,0.319-0.703c0.213-0.188,0.524-0.281,0.934-0.281c0.407,0,0.768,0.089,1.084,0.266
			c0.316,0.178,0.549,0.421,0.697,0.729c0.114,0.238,0.17,0.59,0.17,1.055V657.843z"/>
	</g>
	<g enable-background="new    ">
		<path d="M220.99,655.664l0.152-0.931c-0.297-0.063-0.562-0.094-0.797-0.094c-0.383,0-0.68,0.061-0.89,0.182
			c-0.211,0.121-0.36,0.28-0.445,0.477c-0.086,0.197-0.129,0.612-0.129,1.245v3.58h-0.773v0.82h0.773v1.541l1.049,0.633v-2.174
			h1.061v-0.82h-1.061v-3.638c0-0.301,0.019-0.494,0.056-0.58c0.037-0.086,0.097-0.155,0.182-0.205
			c0.084-0.051,0.204-0.076,0.36-0.076C220.644,655.623,220.799,655.636,220.99,655.664z"/>
	</g>
	<g enable-background="new    ">
		<path d="M226.282,656.724l1.09-0.135c-0.172-0.637-0.49-1.131-0.955-1.482c-0.465-0.351-1.059-0.527-1.781-0.527
			c-0.91,0-1.632,0.28-2.165,0.841c-0.533,0.561-0.8,1.346-0.8,2.358c0,1.047,0.269,1.859,0.809,2.437
			c0.539,0.578,1.238,0.867,2.097,0.867c0.832,0,1.511-0.283,2.039-0.849c0.527-0.566,0.791-1.363,0.791-2.39
			c0-0.063-0.002-0.156-0.006-0.281h-4.64c0.039-0.684,0.232-1.207,0.58-1.57c0.347-0.363,0.781-0.545,1.301-0.545
			c0.386,0,0.717,0.102,0.99,0.305C225.905,655.955,226.122,656.279,226.282,656.724z M222.819,658.429h3.474
			c-0.047,0.523-0.18,0.916-0.399,1.177c-0.336,0.406-0.771,0.609-1.307,0.609c-0.484,0-0.891-0.162-1.221-0.486
			C223.037,659.406,222.855,658.972,222.819,658.429z"/>
	</g>
	<g enable-background="new    ">
		<path d="M328.605,667.92v0.914c-0.484-0.703-1.142-1.054-1.974-1.054c-0.367,0-0.71,0.07-1.028,0.211
			c-0.318,0.141-0.555,0.317-0.709,0.53c-0.154,0.213-0.263,0.473-0.325,0.782c-0.043,0.207-0.064,0.535-0.064,0.984v3.855h1.054
			v-3.451c0-0.551,0.022-0.922,0.064-1.113c0.066-0.277,0.207-0.495,0.422-0.653c0.215-0.158,0.48-0.237,0.797-0.237
			c0.316,0,0.613,0.081,0.89,0.243c0.278,0.162,0.473,0.383,0.589,0.662c0.115,0.279,0.173,0.684,0.173,1.216v3.334h1.055v-6.222
			H328.605z"/>
	</g>
	<g enable-background="new    ">
		<path d="M331.187,667.92v6.222h0.949v-0.943c0.242,0.441,0.466,0.732,0.671,0.873c0.205,0.141,0.431,0.211,0.677,0.211
			c0.355,0,0.717-0.113,1.084-0.34l-0.363-0.978c-0.257,0.152-0.515,0.229-0.773,0.229c-0.23,0-0.438-0.069-0.621-0.208
			c-0.184-0.139-0.314-0.331-0.393-0.577c-0.117-0.375-0.176-0.785-0.176-1.23v-3.257H331.187z"/>
	</g>
	<g enable-background="new    ">
		<path d="M339.255,668.687c-0.39-0.332-0.766-0.566-1.128-0.703c-0.362-0.137-0.749-0.205-1.163-0.205
			c-0.684,0-1.209,0.167-1.576,0.501s-0.551,0.761-0.551,1.28c0,0.305,0.069,0.583,0.208,0.835c0.138,0.252,0.32,0.454,0.545,0.606
			c0.224,0.152,0.477,0.268,0.758,0.346c0.207,0.055,0.52,0.107,0.938,0.158c0.851,0.101,1.478,0.222,1.881,0.363
			c0.003,0.144,0.006,0.236,0.006,0.275c0,0.43-0.1,0.732-0.299,0.908c-0.269,0.238-0.67,0.358-1.201,0.358
			c-0.496,0-0.862-0.087-1.098-0.261c-0.237-0.174-0.411-0.481-0.525-0.923l-1.031,0.141c0.094,0.441,0.248,0.798,0.463,1.069
			c0.215,0.271,0.526,0.48,0.932,0.627c0.407,0.146,0.877,0.219,1.412,0.219c0.531,0,0.963-0.062,1.295-0.188
			c0.332-0.125,0.576-0.282,0.733-0.471c0.156-0.189,0.265-0.429,0.328-0.718c0.035-0.18,0.053-0.504,0.053-0.972v-1.406
			c0-0.98,0.023-1.6,0.067-1.86c0.045-0.26,0.134-0.509,0.267-0.747h-1.101C339.357,668.138,339.286,668.394,339.255,668.687z
			 M339.167,671.042c-0.383-0.156-0.957-0.289-1.722-0.398c-0.434-0.063-0.74-0.133-0.92-0.211c-0.18-0.078-0.318-0.192-0.416-0.343
			c-0.097-0.151-0.146-0.317-0.146-0.501c0-0.281,0.106-0.516,0.319-0.703c0.213-0.188,0.524-0.281,0.934-0.281
			c0.407,0,0.768,0.089,1.084,0.266c0.316,0.178,0.549,0.421,0.697,0.729c0.114,0.238,0.17,0.59,0.17,1.055V671.042z"/>
	</g>
	<g enable-background="new    ">
		<path d="M345.927,670.199l1.037-0.135c-0.113-0.715-0.403-1.274-0.87-1.678c-0.467-0.404-1.04-0.606-1.72-0.606
			c-0.851,0-1.536,0.278-2.053,0.835c-0.518,0.557-0.777,1.354-0.777,2.393c0,0.672,0.112,1.26,0.334,1.763
			c0.222,0.504,0.562,0.882,1.016,1.134c0.455,0.252,0.95,0.378,1.485,0.378c0.676,0,1.228-0.171,1.658-0.513
			c0.43-0.342,0.705-0.827,0.826-1.456l-1.025-0.158c-0.098,0.418-0.271,0.733-0.519,0.943c-0.248,0.211-0.548,0.316-0.899,0.316
			c-0.532,0-0.963-0.19-1.295-0.571c-0.332-0.381-0.498-0.983-0.498-1.807c0-0.836,0.16-1.443,0.48-1.822
			c0.32-0.379,0.738-0.568,1.254-0.568c0.414,0,0.759,0.127,1.037,0.381C345.677,669.281,345.852,669.671,345.927,670.199z"/>
	</g>
	<g enable-background="new    ">
		<path d="M347.873,675.296v1.213h1.055v-1.213H347.873z M347.873,667.92v6.222h1.055v-6.222H347.873z"/>
	</g>
	<g enable-background="new    ">
		<path d="M350.508,667.92v8.589h1.054v-8.589H350.508z"/>
	</g>
	<g enable-background="new    ">
		<path d="M310.689,656.098l1.043,0.164c0.059-0.418,0.221-0.738,0.489-0.961c0.268-0.223,0.642-0.334,1.122-0.334
			c0.484,0,0.844,0.099,1.078,0.296c0.235,0.197,0.352,0.429,0.352,0.694c0,0.238-0.104,0.426-0.311,0.563
			c-0.145,0.094-0.504,0.213-1.078,0.357c-0.773,0.195-1.309,0.364-1.608,0.507c-0.299,0.142-0.525,0.34-0.68,0.592
			c-0.154,0.252-0.231,0.53-0.231,0.835c0,0.277,0.063,0.534,0.19,0.77c0.127,0.236,0.3,0.432,0.519,0.589
			c0.164,0.121,0.387,0.224,0.671,0.308c0.283,0.084,0.587,0.126,0.911,0.126c0.488,0,0.917-0.07,1.286-0.211
			c0.369-0.141,0.642-0.331,0.817-0.571c0.176-0.24,0.297-0.562,0.363-0.964l-1.031-0.141c-0.047,0.32-0.183,0.57-0.407,0.75
			c-0.224,0.18-0.542,0.27-0.952,0.27c-0.484,0-0.83-0.08-1.037-0.24c-0.207-0.16-0.311-0.348-0.311-0.562
			c0-0.137,0.043-0.26,0.129-0.369c0.086-0.113,0.22-0.207,0.404-0.281c0.105-0.039,0.416-0.129,0.932-0.27
			c0.746-0.199,1.266-0.362,1.561-0.489c0.295-0.127,0.527-0.312,0.694-0.554c0.168-0.242,0.252-0.543,0.252-0.902
			c0-0.352-0.102-0.683-0.308-0.993c-0.205-0.31-0.501-0.551-0.887-0.721c-0.387-0.17-0.824-0.255-1.313-0.255
			c-0.809,0-1.425,0.168-1.848,0.504S310.806,655.437,310.689,656.098z"/>
	</g>
	<g enable-background="new    ">
		<path d="M321.189,654.24v0.914c-0.484-0.703-1.142-1.054-1.974-1.054c-0.367,0-0.71,0.07-1.028,0.211
			c-0.318,0.141-0.555,0.317-0.709,0.53c-0.154,0.213-0.263,0.473-0.325,0.782c-0.043,0.207-0.064,0.535-0.064,0.984v3.855h1.054
			v-3.451c0-0.551,0.022-0.922,0.064-1.113c0.066-0.277,0.207-0.495,0.422-0.653c0.215-0.158,0.48-0.237,0.797-0.237
			c0.316,0,0.613,0.081,0.89,0.243c0.278,0.162,0.473,0.383,0.589,0.662c0.115,0.279,0.173,0.684,0.173,1.216v3.334h1.055v-6.222
			H321.189z"/>
	</g>
	<g enable-background="new    ">
		<path d="M323.76,654.24v8.589h1.054v-8.589H323.76z"/>
	</g>
	<g enable-background="new    ">
		<path d="M326.447,651.856v8.607h0.961v-0.809c0.226,0.316,0.482,0.554,0.767,0.712c0.285,0.158,0.631,0.237,1.037,0.237
			c0.531,0,1-0.137,1.406-0.41c0.406-0.274,0.713-0.659,0.92-1.157c0.207-0.498,0.31-1.044,0.31-1.638
			c0-0.637-0.114-1.21-0.343-1.72c-0.228-0.51-0.561-0.9-0.996-1.172c-0.436-0.271-0.893-0.407-1.374-0.407
			c-0.351,0-0.667,0.074-0.946,0.222c-0.28,0.148-0.509,0.336-0.689,0.562v-3.029H326.447z M327.402,657.316
			c0-0.801,0.162-1.393,0.486-1.775c0.324-0.383,0.717-0.574,1.178-0.574c0.469,0,0.87,0.198,1.204,0.595
			c0.334,0.396,0.501,1.011,0.501,1.843c0,0.793-0.163,1.387-0.489,1.781c-0.326,0.395-0.716,0.592-1.169,0.592
			c-0.449,0-0.846-0.21-1.192-0.63C327.575,658.727,327.402,658.117,327.402,657.316z"/>
	</g>
	<g enable-background="new    ">
		<path d="M333.119,654.24v8.589h1.055v-3.082c0.492,0.57,1.113,0.855,1.863,0.855c0.461,0,0.861-0.091,1.201-0.272
			c0.34-0.182,0.583-0.433,0.729-0.753c0.147-0.32,0.22-0.785,0.22-1.394v-3.943h-1.055v3.943c0,0.527-0.114,0.911-0.343,1.151
			c-0.229,0.24-0.552,0.36-0.97,0.36c-0.312,0-0.606-0.081-0.881-0.243c-0.276-0.162-0.472-0.382-0.589-0.659
			c-0.117-0.277-0.176-0.66-0.176-1.148v-3.404H333.119z"/>
	</g>
	<g enable-background="new    ">
		<path d="M339.399,657.351c0,1.152,0.32,2.006,0.961,2.56c0.535,0.461,1.188,0.691,1.957,0.691c0.855,0,1.555-0.28,2.098-0.841
			c0.543-0.561,0.814-1.335,0.814-2.323c0-0.801-0.12-1.431-0.36-1.89c-0.24-0.459-0.59-0.815-1.049-1.069
			c-0.459-0.254-0.96-0.381-1.503-0.381c-0.871,0-1.575,0.279-2.112,0.838C339.667,655.496,339.399,656.301,339.399,657.351z
			 M340.482,657.351c0-0.797,0.174-1.393,0.521-1.79c0.348-0.396,0.785-0.595,1.313-0.595c0.524,0,0.959,0.199,1.307,0.598
			c0.347,0.398,0.521,1.006,0.521,1.822c0,0.769-0.175,1.352-0.524,1.749c-0.349,0.396-0.784,0.595-1.304,0.595
			c-0.527,0-0.965-0.197-1.313-0.592C340.656,658.744,340.482,658.148,340.482,657.351z"/>
	</g>
	<g enable-background="new    ">
		<path d="M346.463,654.24v6.222h0.949v-0.885c0.457,0.683,1.117,1.025,1.98,1.025c0.375,0,0.719-0.067,1.034-0.202
			s0.55-0.312,0.706-0.53c0.156-0.219,0.266-0.478,0.328-0.779c0.039-0.195,0.059-0.537,0.059-1.025v-3.826h-1.055v3.785
			c0,0.43-0.041,0.751-0.123,0.964c-0.082,0.213-0.227,0.383-0.437,0.51c-0.209,0.127-0.454,0.19-0.735,0.19
			c-0.449,0-0.837-0.143-1.163-0.428c-0.326-0.285-0.489-0.826-0.489-1.623v-3.398H346.463z"/>
	</g>
	<g enable-background="new    ">
		<path d="M357.195,655.008c-0.39-0.332-0.766-0.566-1.127-0.703c-0.362-0.137-0.749-0.205-1.163-0.205
			c-0.684,0-1.209,0.167-1.576,0.501c-0.367,0.334-0.551,0.761-0.551,1.28c0,0.305,0.069,0.583,0.208,0.835
			c0.138,0.252,0.32,0.454,0.545,0.606c0.224,0.152,0.477,0.267,0.758,0.346c0.207,0.055,0.52,0.107,0.938,0.158
			c0.851,0.101,1.478,0.222,1.881,0.363c0.003,0.144,0.006,0.236,0.006,0.275c0,0.43-0.1,0.732-0.299,0.908
			c-0.269,0.238-0.67,0.358-1.201,0.358c-0.496,0-0.862-0.087-1.098-0.261c-0.237-0.174-0.411-0.481-0.525-0.923l-1.031,0.141
			c0.094,0.441,0.248,0.797,0.463,1.069c0.215,0.271,0.526,0.48,0.932,0.627c0.406,0.146,0.877,0.22,1.412,0.22
			c0.532,0,0.963-0.062,1.295-0.188c0.332-0.125,0.576-0.282,0.733-0.471c0.156-0.189,0.265-0.429,0.328-0.718
			c0.035-0.18,0.053-0.504,0.053-0.972v-1.406c0-0.98,0.023-1.6,0.067-1.86c0.045-0.26,0.134-0.509,0.267-0.747h-1.101
			C357.297,654.459,357.226,654.715,357.195,655.008z M357.107,657.363c-0.383-0.156-0.957-0.289-1.722-0.398
			c-0.434-0.063-0.74-0.133-0.92-0.211c-0.18-0.078-0.318-0.192-0.416-0.343c-0.097-0.151-0.146-0.317-0.146-0.501
			c0-0.281,0.106-0.516,0.319-0.703c0.213-0.188,0.524-0.281,0.934-0.281c0.406,0,0.768,0.089,1.084,0.266
			c0.316,0.178,0.549,0.421,0.697,0.729c0.114,0.238,0.17,0.59,0.17,1.055V657.363z"/>
	</g>
	<g enable-background="new    ">
		<path d="M362.11,655.183l0.152-0.931c-0.297-0.062-0.562-0.094-0.797-0.094c-0.383,0-0.68,0.061-0.89,0.182
			c-0.211,0.121-0.36,0.28-0.445,0.477c-0.086,0.197-0.129,0.612-0.129,1.245v3.58h-0.773v0.82H360v1.541l1.049,0.633v-2.174h1.061
			v-0.82h-1.061v-3.638c0-0.301,0.019-0.494,0.056-0.58c0.037-0.086,0.097-0.155,0.182-0.205c0.084-0.051,0.204-0.076,0.36-0.076
			C361.764,655.143,361.918,655.156,362.11,655.183z"/>
	</g>
	<g enable-background="new    ">
		<path d="M367.403,656.244l1.09-0.135c-0.172-0.637-0.49-1.131-0.955-1.482c-0.465-0.351-1.059-0.527-1.781-0.527
			c-0.91,0-1.632,0.28-2.165,0.841c-0.533,0.561-0.8,1.346-0.8,2.358c0,1.047,0.269,1.859,0.809,2.437
			c0.539,0.578,1.238,0.867,2.097,0.867c0.832,0,1.511-0.283,2.039-0.849c0.527-0.566,0.791-1.363,0.791-2.39
			c0-0.062-0.002-0.156-0.006-0.281h-4.64c0.039-0.684,0.232-1.207,0.58-1.57c0.347-0.363,0.781-0.545,1.301-0.545
			c0.386,0,0.717,0.102,0.99,0.305C367.026,655.474,367.242,655.799,367.403,656.244z M363.94,657.949h3.474
			c-0.047,0.523-0.18,0.916-0.399,1.177c-0.336,0.406-0.771,0.61-1.307,0.61c-0.484,0-0.891-0.162-1.221-0.487
			C364.158,658.925,363.975,658.492,363.94,657.949z"/>
	</g>
	<g enable-background="new    ">
		<path d="M472.869,662.88v0.914c-0.484-0.703-1.142-1.054-1.974-1.054c-0.367,0-0.71,0.07-1.028,0.211
			c-0.318,0.141-0.555,0.317-0.709,0.53c-0.154,0.213-0.263,0.473-0.325,0.782c-0.043,0.207-0.064,0.535-0.064,0.984v3.855h1.054
			v-3.451c0-0.551,0.022-0.922,0.064-1.113c0.066-0.277,0.207-0.495,0.422-0.653c0.215-0.158,0.48-0.237,0.797-0.237
			c0.316,0,0.613,0.081,0.89,0.243c0.278,0.162,0.473,0.383,0.589,0.662c0.115,0.279,0.173,0.684,0.173,1.216v3.334h1.055v-6.222
			H472.869z"/>
	</g>
	<g enable-background="new    ">
		<path d="M475.451,662.88v6.222h0.949v-0.943c0.242,0.441,0.466,0.732,0.671,0.873c0.205,0.141,0.431,0.211,0.677,0.211
			c0.355,0,0.717-0.113,1.084-0.34l-0.363-0.978c-0.257,0.152-0.515,0.229-0.773,0.229c-0.23,0-0.438-0.069-0.621-0.208
			c-0.184-0.139-0.314-0.331-0.393-0.577c-0.117-0.375-0.176-0.785-0.176-1.23v-3.257H475.451z"/>
	</g>
	<g enable-background="new    ">
		<path d="M483.519,663.648c-0.39-0.332-0.766-0.566-1.128-0.703c-0.362-0.137-0.749-0.205-1.163-0.205
			c-0.684,0-1.209,0.167-1.576,0.501s-0.551,0.761-0.551,1.28c0,0.305,0.069,0.583,0.208,0.835c0.138,0.252,0.32,0.454,0.545,0.606
			c0.224,0.152,0.477,0.268,0.758,0.346c0.207,0.055,0.52,0.107,0.938,0.158c0.851,0.101,1.478,0.222,1.881,0.363
			c0.003,0.144,0.006,0.236,0.006,0.275c0,0.43-0.1,0.732-0.299,0.908c-0.269,0.238-0.67,0.358-1.201,0.358
			c-0.496,0-0.862-0.087-1.098-0.261c-0.237-0.174-0.411-0.481-0.525-0.923l-1.031,0.141c0.094,0.441,0.248,0.797,0.463,1.069
			c0.215,0.271,0.526,0.48,0.932,0.627c0.407,0.146,0.877,0.219,1.412,0.219c0.531,0,0.963-0.062,1.295-0.188
			c0.332-0.125,0.576-0.282,0.733-0.471c0.156-0.189,0.265-0.429,0.328-0.718c0.035-0.18,0.053-0.504,0.053-0.972v-1.406
			c0-0.98,0.023-1.6,0.067-1.86c0.045-0.26,0.134-0.509,0.267-0.747h-1.101C483.621,663.099,483.551,663.355,483.519,663.648z
			 M483.432,666.003c-0.383-0.156-0.957-0.289-1.722-0.398c-0.434-0.063-0.74-0.133-0.92-0.211c-0.18-0.078-0.318-0.192-0.416-0.343
			c-0.097-0.151-0.146-0.317-0.146-0.501c0-0.281,0.106-0.516,0.319-0.703c0.213-0.188,0.524-0.281,0.934-0.281
			c0.407,0,0.768,0.089,1.084,0.266c0.316,0.178,0.549,0.421,0.697,0.729c0.114,0.238,0.17,0.59,0.17,1.055V666.003z"/>
	</g>
	<g enable-background="new    ">
		<path d="M490.192,665.159l1.037-0.135c-0.113-0.715-0.403-1.274-0.87-1.678c-0.467-0.404-1.04-0.606-1.72-0.606
			c-0.851,0-1.536,0.278-2.053,0.835c-0.518,0.557-0.777,1.354-0.777,2.393c0,0.672,0.112,1.26,0.334,1.763
			c0.222,0.504,0.562,0.882,1.016,1.134c0.455,0.252,0.95,0.378,1.485,0.378c0.676,0,1.228-0.171,1.658-0.513
			c0.43-0.342,0.705-0.827,0.826-1.456l-1.025-0.158c-0.098,0.418-0.271,0.733-0.519,0.943c-0.248,0.211-0.548,0.316-0.899,0.316
			c-0.532,0-0.963-0.19-1.295-0.571c-0.332-0.381-0.498-0.983-0.498-1.807c0-0.836,0.16-1.443,0.48-1.822
			c0.32-0.379,0.738-0.568,1.254-0.568c0.414,0,0.759,0.127,1.037,0.381C489.942,664.241,490.117,664.632,490.192,665.159z"/>
	</g>
	<g enable-background="new    ">
		<path d="M492.136,670.256v1.213h1.055v-1.213H492.136z M492.136,662.88v6.222h1.055v-6.222H492.136z"/>
	</g>
	<g enable-background="new    ">
		<path d="M494.772,662.88v8.589h1.054v-8.589H494.772z"/>
	</g>
	
		<path id="path3777" inkscape:connector-curvature="0" fill="none" stroke="#000000" stroke-width="0.72" stroke-linecap="round" stroke-miterlimit="10" d="
		M279.36,706.08l0.48-1.92"/>
	
		<path id="path3779" inkscape:connector-curvature="0" stroke="#000000" stroke-width="0.72" stroke-linecap="round" stroke-miterlimit="10" d="
		M279.84,712.32v-8.16l-3.84,7.2l2.4-0.96L279.84,712.32z"/>
	<g enable-background="new    ">
		<path d="M41.561,604.32v7.158h0.972l3.759-5.62v5.62h0.908v-7.158h-0.971l-3.759,5.624v-5.624H41.561z"/>
	</g>
	<g enable-background="new    ">
		<path d="M55.961,578.88v7.158h0.972l3.759-5.62v5.62h0.908v-7.158h-0.971l-3.759,5.624v-5.624H55.961z"/>
	</g>
	<g enable-background="new    ">
		<path d="M56,567.6v7.158h0.947v-2.939h3.72v2.939h0.947V567.6h-0.947v3.374h-3.72V567.6H56z"/>
	</g>
	<g enable-background="new    ">
		<path d="M56.202,629.52v7.158h0.972l3.759-5.62v5.62h0.908v-7.158h-0.971l-3.759,5.624v-5.624H56.202z"/>
	</g>
	<g enable-background="new    ">
		<path d="M63.441,629.52v7.158h0.947v-2.939h3.72v2.939h0.947v-7.158h-0.947v3.374h-3.72v-3.374H63.441z"/>
	</g>
	<g enable-background="new    ">
		<path d="M73.867,627.556v-0.676h-3.785c-0.005,0.169,0.022,0.332,0.082,0.488c0.096,0.258,0.251,0.512,0.463,0.761
			c0.212,0.25,0.519,0.539,0.92,0.867c0.622,0.51,1.043,0.915,1.262,1.213c0.219,0.298,0.328,0.58,0.328,0.846
			c0,0.279-0.1,0.514-0.299,0.705c-0.199,0.191-0.459,0.287-0.779,0.287c-0.339,0-0.609-0.101-0.813-0.305
			c-0.203-0.203-0.306-0.484-0.309-0.844l-0.722,0.074c0.049,0.539,0.235,0.95,0.559,1.232c0.323,0.283,0.756,0.424,1.3,0.424
			c0.549,0,0.985-0.152,1.305-0.457c0.32-0.305,0.481-0.682,0.481-1.133c0-0.229-0.047-0.454-0.141-0.676
			c-0.094-0.221-0.249-0.454-0.467-0.699c-0.217-0.245-0.579-0.581-1.084-1.008c-0.422-0.354-0.693-0.594-0.812-0.721
			c-0.12-0.126-0.219-0.253-0.297-0.381H73.867z"/>
	</g>
	<g enable-background="new    ">
		<path d="M26.403,582.367c0,1.188,0.319,2.118,0.957,2.79c0.638,0.672,1.461,1.008,2.471,1.008c0.661,0,1.256-0.158,1.787-0.473
			c0.531-0.316,0.935-0.756,1.213-1.321c0.278-0.565,0.417-1.205,0.417-1.921c0-0.726-0.146-1.375-0.439-1.948
			c-0.293-0.573-0.708-1.007-1.245-1.301c-0.537-0.295-1.116-0.442-1.738-0.442c-0.674,0-1.276,0.162-1.806,0.488
			s-0.933,0.77-1.206,1.333C26.54,581.142,26.403,581.738,26.403,582.367z M27.38,582.352c0-0.863,0.232-1.542,0.696-2.038
			c0.464-0.497,1.046-0.745,1.745-0.745c0.713,0,1.299,0.25,1.76,0.752c0.461,0.501,0.691,1.213,0.691,2.134
			c0,0.583-0.099,1.091-0.296,1.526c-0.197,0.435-0.485,0.772-0.864,1.011c-0.379,0.239-0.805,0.359-1.277,0.359
			c-0.671,0-1.248-0.23-1.731-0.691C27.622,584.198,27.38,583.429,27.38,582.352z"/>
	</g>
	<g enable-background="new    ">
		<path d="M92.999,616.669l0.947-0.239c-0.199-0.778-0.556-1.371-1.072-1.78c-0.516-0.409-1.147-0.613-1.892-0.613
			c-0.771,0-1.399,0.157-1.882,0.471c-0.484,0.314-0.851,0.769-1.103,1.364c-0.252,0.596-0.378,1.235-0.378,1.919
			c0,0.746,0.142,1.396,0.427,1.951c0.285,0.555,0.69,0.976,1.216,1.264c0.526,0.288,1.104,0.432,1.736,0.432
			c0.716,0,1.318-0.182,1.806-0.547c0.488-0.365,0.829-0.877,1.02-1.538l-0.932-0.22c-0.166,0.521-0.407,0.9-0.723,1.138
			s-0.713,0.356-1.191,0.356c-0.55,0-1.01-0.132-1.379-0.395c-0.37-0.264-0.629-0.618-0.779-1.062
			c-0.15-0.444-0.225-0.903-0.225-1.375c0-0.609,0.089-1.14,0.266-1.594c0.177-0.454,0.453-0.793,0.828-1.018
			c0.374-0.225,0.779-0.337,1.216-0.337c0.531,0,0.98,0.153,1.347,0.459C92.619,615.613,92.868,616.067,92.999,616.669z"/>
	</g>
	<g enable-background="new    ">
		<path d="M95.121,614.16v7.158h0.947v-2.939h3.72v2.939h0.947v-7.158h-0.947v3.374h-3.72v-3.374H95.121z"/>
	</g>
	<g enable-background="new    ">
		<path d="M101.856,613.032l0.703,0.094c0.081-0.399,0.218-0.686,0.412-0.861c0.194-0.176,0.43-0.264,0.709-0.264
			c0.331,0,0.61,0.115,0.838,0.344c0.228,0.229,0.342,0.513,0.342,0.852c0,0.323-0.106,0.589-0.316,0.799
			c-0.211,0.21-0.479,0.314-0.805,0.314c-0.133,0-0.298-0.026-0.496-0.078l0.078,0.617c0.047-0.005,0.084-0.008,0.113-0.008
			c0.299,0,0.569,0.078,0.809,0.234c0.239,0.156,0.359,0.397,0.359,0.722c0,0.258-0.087,0.471-0.262,0.641
			c-0.174,0.169-0.4,0.254-0.676,0.254c-0.273,0-0.501-0.086-0.683-0.258c-0.182-0.172-0.299-0.43-0.352-0.773l-0.703,0.125
			c0.086,0.471,0.281,0.836,0.586,1.096c0.305,0.259,0.684,0.388,1.137,0.388c0.313,0,0.6-0.067,0.863-0.201
			c0.263-0.134,0.464-0.317,0.603-0.549c0.139-0.232,0.209-0.478,0.209-0.738c0-0.247-0.066-0.473-0.199-0.676
			c-0.133-0.203-0.329-0.365-0.59-0.484c0.339-0.078,0.602-0.24,0.789-0.486c0.187-0.246,0.281-0.554,0.281-0.924
			c0-0.5-0.182-0.923-0.547-1.271c-0.365-0.347-0.826-0.521-1.383-0.521c-0.502,0-0.92,0.15-1.252,0.449
			C102.092,612.167,101.903,612.555,101.856,613.032z"/>
	</g>
	
		<path id="path3821" inkscape:connector-curvature="0" fill="none" stroke="#000000" stroke-width="0.72" stroke-linecap="round" stroke-miterlimit="10" d="
		M59.04,616.56l-10.08-5.76"/>
	
		<path id="path3823" inkscape:connector-curvature="0" fill="none" stroke="#000000" stroke-width="0.72" stroke-linecap="round" stroke-miterlimit="10" d="
		M59.28,612.72l-10.08-5.76"/>
	
		<path id="path3825" inkscape:connector-curvature="0" fill="none" stroke="#000000" stroke-width="0.72" stroke-linecap="round" stroke-miterlimit="10" d="
		M44.4,603.12v-11.76"/>
	
		<path id="path3827" inkscape:connector-curvature="0" fill="none" stroke="#000000" stroke-width="0.72" stroke-linecap="round" stroke-miterlimit="10" d="
		M44.4,591.36l9.84-5.76"/>
	
		<path id="path3829" inkscape:connector-curvature="0" fill="none" stroke="#000000" stroke-width="0.72" stroke-linecap="round" stroke-miterlimit="10" d="
		M63.36,585.36l10.08,6"/>
	
		<path id="path3831" inkscape:connector-curvature="0" fill="none" stroke="#000000" stroke-width="0.72" stroke-linecap="round" stroke-miterlimit="10" d="
		M73.44,591.36l0.24,16.8"/>
	
		<path id="path3833" inkscape:connector-curvature="0" fill="none" stroke="#000000" stroke-width="0.72" stroke-linecap="round" stroke-miterlimit="10" d="
		M70.08,593.04l0.24,13.44"/>
	
		<path id="path3835" inkscape:connector-curvature="0" fill="none" stroke="#000000" stroke-width="0.72" stroke-linecap="round" stroke-miterlimit="10" d="
		M73.68,608.16l-14.64,8.4"/>
	
		<path id="path3837" inkscape:connector-curvature="0" fill="none" stroke="#000000" stroke-width="0.72" stroke-linecap="round" stroke-miterlimit="10" d="
		M59.04,616.56v11.76"/>
	
		<path id="path3839" inkscape:connector-curvature="0" fill="none" stroke="#000000" stroke-width="0.72" stroke-linecap="round" stroke-miterlimit="10" d="
		M43.68,592.8l-8.88-5.04"/>
	
		<path id="path3841" inkscape:connector-curvature="0" fill="none" stroke="#000000" stroke-width="0.72" stroke-linecap="round" stroke-miterlimit="10" d="
		M45.36,589.92l-10.56-6"/>
	
		<path id="path3843" inkscape:connector-curvature="0" fill="none" stroke="#000000" stroke-width="0.72" stroke-linecap="round" stroke-miterlimit="10" d="
		M73.68,608.16l12.48,7.2"/>
	<g enable-background="new    ">
		<path d="M21.138,544.65l1.107,0.094c0.082-0.539,0.272-0.944,0.571-1.216c0.299-0.272,0.659-0.407,1.081-0.407
			c0.508,0,0.938,0.191,1.289,0.574c0.352,0.383,0.527,0.891,0.527,1.523c0,0.601-0.169,1.076-0.507,1.424
			c-0.338,0.347-0.78,0.522-1.327,0.522c-0.34,0-0.646-0.077-0.92-0.232c-0.274-0.154-0.488-0.354-0.644-0.6l-0.99,0.129
			l0.832,4.411h4.271v-1.007h-3.427l-0.463-2.309c0.516,0.359,1.057,0.539,1.623,0.539c0.75,0,1.383-0.26,1.898-0.78
			c0.516-0.519,0.773-1.188,0.773-2.003c0-0.778-0.227-1.449-0.68-2.016c-0.551-0.695-1.303-1.043-2.256-1.043
			c-0.781,0-1.419,0.219-1.913,0.656C21.49,543.347,21.208,543.927,21.138,544.65z"/>
	</g>
	<g enable-background="new    ">
		<path d="M27.693,544.978v1.061h3.24v-1.061H27.693z"/>
	</g>
	<g enable-background="new    ">
		<path d="M32.099,542.4v6.222h0.943v-0.873c0.195,0.305,0.455,0.55,0.779,0.735c0.324,0.186,0.693,0.279,1.107,0.279
			c0.461,0,0.839-0.096,1.134-0.287c0.295-0.191,0.503-0.459,0.624-0.803c0.492,0.727,1.133,1.09,1.922,1.09
			c0.617,0,1.092-0.171,1.424-0.513c0.332-0.342,0.498-0.868,0.498-1.579V542.4h-1.049v3.919c0,0.422-0.034,0.726-0.103,0.911
			c-0.068,0.185-0.192,0.335-0.372,0.448c-0.18,0.113-0.391,0.17-0.633,0.17c-0.438,0-0.801-0.146-1.09-0.437
			c-0.289-0.291-0.434-0.757-0.434-1.398V542.4h-1.055v4.042c0,0.469-0.086,0.82-0.258,1.055c-0.172,0.234-0.453,0.352-0.844,0.352
			c-0.297,0-0.571-0.078-0.823-0.235c-0.252-0.156-0.435-0.384-0.548-0.686c-0.113-0.301-0.17-0.734-0.17-1.3V542.4H32.099z"/>
	</g>
	<g enable-background="new    ">
		<path d="M46.354,544.404l1.09-0.134c-0.172-0.637-0.49-1.131-0.955-1.482c-0.465-0.352-1.059-0.528-1.781-0.528
			c-0.91,0-1.632,0.281-2.165,0.841c-0.533,0.56-0.8,1.346-0.8,2.358c0,1.047,0.269,1.859,0.808,2.438
			c0.539,0.578,1.238,0.867,2.097,0.867c0.832,0,1.512-0.284,2.039-0.85c0.527-0.566,0.791-1.363,0.791-2.39
			c0-0.062-0.002-0.156-0.006-0.281h-4.64c0.039-0.684,0.233-1.207,0.58-1.57c0.347-0.363,0.781-0.545,1.3-0.545
			c0.387,0,0.717,0.101,0.99,0.305C45.977,543.635,46.194,543.959,46.354,544.404z M42.891,546.109h3.474
			c-0.047,0.523-0.18,0.916-0.398,1.178c-0.336,0.406-0.772,0.609-1.307,0.609c-0.484,0-0.892-0.162-1.221-0.486
			C43.109,547.085,42.927,546.652,42.891,546.109z"/>
	</g>
	<g enable-background="new    ">
		<path d="M51.07,543.344l0.152-0.932c-0.297-0.062-0.563-0.094-0.797-0.094c-0.383,0-0.679,0.061-0.891,0.182
			c-0.211,0.121-0.359,0.281-0.445,0.478c-0.086,0.197-0.129,0.612-0.129,1.245v3.58h-0.773v0.82h0.773v1.541l1.049,0.633v-2.174
			h1.061v-0.82h-1.061v-3.638c0-0.301,0.018-0.494,0.056-0.58c0.037-0.086,0.098-0.155,0.182-0.205
			c0.084-0.051,0.204-0.076,0.36-0.076C50.724,543.302,50.878,543.316,51.07,543.344z"/>
	</g>
	<g enable-background="new    ">
		<path d="M52.103,542.4v8.589h1.055v-3.082c0.492,0.57,1.113,0.855,1.863,0.855c0.461,0,0.861-0.091,1.201-0.273
			c0.34-0.182,0.583-0.433,0.729-0.753c0.146-0.32,0.22-0.785,0.22-1.394V542.4h-1.055v3.943c0,0.527-0.114,0.911-0.343,1.151
			c-0.228,0.24-0.552,0.36-0.97,0.36c-0.313,0-0.607-0.081-0.882-0.243c-0.275-0.162-0.471-0.381-0.589-0.659
			c-0.117-0.278-0.176-0.66-0.176-1.148V542.4H52.103z"/>
	</g>
	<g enable-background="new    ">
		<path d="M58.728,540.004l-0.117,0.99c0.23-0.062,0.431-0.094,0.603-0.094c0.234,0,0.422,0.039,0.563,0.117
			c0.141,0.078,0.256,0.188,0.346,0.328c0.066,0.105,0.174,0.367,0.322,0.785c0.019,0.059,0.051,0.145,0.094,0.258l-2.361,6.234
			h1.137l1.295-3.603c0.168-0.457,0.318-0.937,0.451-1.441c0.121,0.484,0.266,0.957,0.434,1.418l1.33,3.627h1.055l-2.367-6.327
			c-0.254-0.684-0.451-1.155-0.592-1.412c-0.188-0.348-0.402-0.603-0.644-0.765c-0.242-0.162-0.531-0.243-0.867-0.243
			C59.204,539.875,58.978,539.918,58.728,540.004z"/>
	</g>
	<g enable-background="new    ">
		<path d="M64.751,542.4v8.589h1.055V542.4H64.751z"/>
	</g>
	<g enable-background="new    ">
		<path d="M71.499,544.679l1.037-0.135c-0.113-0.715-0.403-1.274-0.87-1.679c-0.467-0.404-1.04-0.606-1.72-0.606
			c-0.852,0-1.536,0.279-2.053,0.835c-0.518,0.557-0.776,1.354-0.776,2.393c0,0.672,0.111,1.259,0.334,1.763
			c0.223,0.504,0.562,0.882,1.017,1.134c0.455,0.252,0.95,0.378,1.485,0.378c0.676,0,1.228-0.171,1.658-0.513
			c0.43-0.342,0.705-0.827,0.826-1.456l-1.025-0.158c-0.098,0.418-0.27,0.732-0.518,0.943c-0.248,0.211-0.548,0.316-0.899,0.316
			c-0.531,0-0.963-0.19-1.295-0.571c-0.332-0.381-0.498-0.983-0.498-1.808c0-0.836,0.16-1.443,0.48-1.822
			c0.32-0.379,0.738-0.568,1.254-0.568c0.414,0,0.76,0.127,1.037,0.381C71.249,543.762,71.425,544.152,71.499,544.679z"/>
	</g>
	<g enable-background="new    ">
		<path d="M73.392,540.004l-0.117,0.99c0.23-0.062,0.431-0.094,0.603-0.094c0.234,0,0.422,0.039,0.563,0.117
			c0.141,0.078,0.256,0.188,0.346,0.328c0.066,0.105,0.174,0.367,0.322,0.785c0.019,0.059,0.051,0.145,0.094,0.258l-2.361,6.234
			h1.137l1.295-3.603c0.168-0.457,0.318-0.937,0.451-1.441c0.121,0.484,0.266,0.957,0.434,1.418l1.33,3.627h1.055l-2.367-6.327
			c-0.254-0.684-0.451-1.155-0.592-1.412c-0.188-0.348-0.402-0.603-0.644-0.765c-0.242-0.162-0.531-0.243-0.867-0.243
			C73.868,539.875,73.642,539.918,73.392,540.004z"/>
	</g>
	<g enable-background="new    ">
		<path d="M81.742,543.344l0.152-0.932c-0.297-0.062-0.563-0.094-0.797-0.094c-0.383,0-0.679,0.061-0.891,0.182
			c-0.211,0.121-0.359,0.281-0.445,0.478c-0.086,0.197-0.129,0.612-0.129,1.245v3.58h-0.773v0.82h0.773v1.541l1.049,0.633v-2.174
			h1.061v-0.82h-1.061v-3.638c0-0.301,0.018-0.494,0.056-0.58c0.037-0.086,0.098-0.155,0.182-0.205
			c0.084-0.051,0.204-0.076,0.36-0.076C81.396,543.302,81.55,543.316,81.742,543.344z"/>
	</g>
	<g enable-background="new    ">
		<path d="M82.382,545.511c0,1.153,0.32,2.006,0.961,2.561c0.535,0.461,1.187,0.691,1.957,0.691c0.856,0,1.555-0.281,2.097-0.841
			c0.543-0.561,0.814-1.335,0.814-2.323c0-0.801-0.12-1.431-0.36-1.889c-0.24-0.459-0.59-0.815-1.049-1.069
			c-0.459-0.254-0.96-0.381-1.503-0.381c-0.871,0-1.575,0.28-2.112,0.838C82.651,543.656,82.382,544.46,82.382,545.511z
			 M83.466,545.511c0-0.797,0.174-1.393,0.521-1.789c0.348-0.397,0.785-0.595,1.312-0.595c0.523,0,0.959,0.199,1.307,0.598
			c0.347,0.398,0.521,1.005,0.521,1.822c0,0.769-0.175,1.352-0.524,1.749c-0.35,0.396-0.784,0.595-1.304,0.595
			c-0.527,0-0.965-0.197-1.312-0.592C83.64,546.904,83.466,546.308,83.466,545.511z"/>
	</g>
	<g enable-background="new    ">
		<path d="M89.025,544.258l1.043,0.164c0.059-0.418,0.222-0.738,0.489-0.961c0.267-0.223,0.642-0.334,1.122-0.334
			c0.484,0,0.844,0.099,1.078,0.296c0.234,0.197,0.351,0.429,0.351,0.694c0,0.238-0.103,0.426-0.31,0.563
			c-0.145,0.094-0.504,0.213-1.078,0.357c-0.773,0.195-1.31,0.364-1.608,0.507c-0.299,0.143-0.525,0.34-0.68,0.592
			c-0.154,0.252-0.232,0.531-0.232,0.835c0,0.277,0.063,0.534,0.19,0.77c0.127,0.236,0.3,0.433,0.518,0.589
			c0.164,0.121,0.388,0.223,0.671,0.308c0.283,0.084,0.587,0.126,0.911,0.126c0.488,0,0.917-0.07,1.286-0.211
			c0.369-0.141,0.641-0.331,0.817-0.571c0.176-0.24,0.297-0.562,0.363-0.964l-1.031-0.141c-0.047,0.32-0.183,0.57-0.407,0.75
			c-0.225,0.18-0.542,0.27-0.952,0.27c-0.484,0-0.83-0.08-1.037-0.24c-0.207-0.16-0.311-0.348-0.311-0.563
			c0-0.137,0.043-0.26,0.129-0.369c0.086-0.113,0.221-0.207,0.404-0.281c0.105-0.039,0.416-0.129,0.932-0.269
			c0.746-0.199,1.266-0.362,1.561-0.489c0.295-0.127,0.526-0.311,0.694-0.554c0.168-0.243,0.252-0.543,0.252-0.903
			c0-0.351-0.102-0.683-0.308-0.993c-0.205-0.311-0.501-0.551-0.888-0.72s-0.824-0.255-1.312-0.255
			c-0.809,0-1.425,0.168-1.848,0.504C89.413,543.1,89.142,543.598,89.025,544.258z"/>
	</g>
	<g enable-background="new    ">
		<path d="M95.453,549.776v1.213h1.055v-1.213H95.453z M95.453,542.4v6.222h1.055V542.4H95.453z"/>
	</g>
	<g enable-background="new    ">
		<path d="M98.111,542.4v6.222h0.949v-0.885c0.457,0.684,1.117,1.026,1.98,1.026c0.375,0,0.72-0.067,1.034-0.202
			c0.314-0.135,0.55-0.312,0.706-0.53c0.156-0.219,0.266-0.479,0.328-0.78c0.039-0.195,0.059-0.537,0.059-1.025V542.4h-1.055v3.785
			c0,0.43-0.041,0.75-0.123,0.964c-0.082,0.213-0.227,0.383-0.436,0.51c-0.209,0.126-0.454,0.19-0.735,0.19
			c-0.449,0-0.837-0.143-1.163-0.428c-0.326-0.285-0.489-0.826-0.489-1.623V542.4H98.111z"/>
	</g>
	<g enable-background="new    ">
		<path d="M109.042,544.404l1.09-0.134c-0.172-0.637-0.49-1.131-0.955-1.482c-0.465-0.352-1.059-0.528-1.781-0.528
			c-0.91,0-1.632,0.281-2.165,0.841c-0.533,0.56-0.8,1.346-0.8,2.358c0,1.047,0.269,1.859,0.808,2.438
			c0.539,0.578,1.238,0.867,2.097,0.867c0.832,0,1.512-0.284,2.039-0.85c0.527-0.566,0.791-1.363,0.791-2.39
			c0-0.062-0.002-0.156-0.006-0.281h-4.64c0.039-0.684,0.233-1.207,0.58-1.57c0.347-0.363,0.781-0.545,1.3-0.545
			c0.387,0,0.717,0.101,0.99,0.305C108.665,543.635,108.882,543.959,109.042,544.404z M105.58,546.109h3.474
			c-0.047,0.523-0.18,0.916-0.398,1.178c-0.336,0.406-0.772,0.609-1.307,0.609c-0.484,0-0.892-0.162-1.221-0.486
			C105.798,547.085,105.615,546.652,105.58,546.109z"/>
	</g>
	<g enable-background="new    ">
		<path d="M116.721,610.32v7.158h0.947v-2.939h3.72v2.939h0.947v-7.158h-0.947v3.374h-3.72v-3.374H116.721z"/>
	</g>
	<g enable-background="new    ">
		<path d="M123.589,612.619l0.893,0.079c0.042-0.358,0.141-0.652,0.296-0.882c0.155-0.229,0.395-0.414,0.72-0.556
			c0.326-0.142,0.692-0.213,1.099-0.213c0.361,0,0.68,0.054,0.957,0.161c0.277,0.107,0.483,0.254,0.618,0.442
			c0.135,0.187,0.203,0.391,0.203,0.612c0,0.225-0.065,0.421-0.195,0.589c-0.13,0.167-0.345,0.308-0.644,0.422
			c-0.192,0.075-0.617,0.191-1.274,0.349c-0.657,0.157-1.118,0.306-1.382,0.446c-0.342,0.179-0.597,0.401-0.764,0.667
			c-0.168,0.265-0.251,0.562-0.251,0.891c0,0.361,0.102,0.699,0.308,1.013c0.205,0.314,0.504,0.553,0.898,0.716
			c0.394,0.162,0.832,0.244,1.314,0.244c0.531,0,0.998-0.086,1.404-0.256c0.405-0.171,0.717-0.422,0.935-0.754
			c0.218-0.332,0.335-0.708,0.351-1.128l-0.908-0.068c-0.049,0.452-0.214,0.794-0.496,1.025c-0.282,0.231-0.697,0.347-1.248,0.347
			c-0.573,0-0.99-0.105-1.252-0.315c-0.262-0.21-0.393-0.464-0.393-0.759c0-0.257,0.093-0.469,0.278-0.635
			c0.182-0.166,0.658-0.336,1.428-0.51c0.77-0.174,1.298-0.326,1.584-0.456c0.417-0.192,0.724-0.436,0.923-0.73
			c0.199-0.295,0.298-0.634,0.298-1.018c0-0.38-0.109-0.74-0.327-1.076c-0.218-0.337-0.532-0.599-0.94-0.786
			c-0.409-0.187-0.868-0.281-1.379-0.281c-0.648,0-1.19,0.094-1.628,0.283c-0.438,0.188-0.781,0.472-1.03,0.851
			C123.733,611.712,123.602,612.141,123.589,612.619z"/>
	</g>
	<g enable-background="new    ">
		<path d="M130.293,613.806c0,1.188,0.319,2.118,0.957,2.79c0.638,0.672,1.461,1.008,2.471,1.008c0.661,0,1.256-0.158,1.787-0.473
			c0.531-0.316,0.935-0.756,1.213-1.321c0.278-0.565,0.417-1.205,0.417-1.921c0-0.726-0.146-1.375-0.439-1.948
			c-0.293-0.573-0.708-1.007-1.245-1.301c-0.537-0.295-1.116-0.442-1.738-0.442c-0.674,0-1.276,0.162-1.806,0.488
			c-0.531,0.326-0.933,0.77-1.206,1.333C130.43,612.582,130.293,613.178,130.293,613.806z M131.27,613.792
			c0-0.863,0.232-1.542,0.696-2.038c0.464-0.497,1.046-0.745,1.745-0.745c0.713,0,1.299,0.25,1.76,0.751
			c0.461,0.502,0.691,1.213,0.691,2.134c0,0.583-0.099,1.091-0.296,1.526s-0.485,0.772-0.864,1.011
			c-0.379,0.239-0.805,0.359-1.277,0.359c-0.671,0-1.248-0.23-1.731-0.691S131.27,614.868,131.27,613.792z"/>
	</g>
	<g enable-background="new    ">
		<path d="M140.145,608.206l0.709,0.094c0.081-0.402,0.22-0.691,0.415-0.868c0.196-0.177,0.434-0.266,0.715-0.266
			c0.333,0,0.615,0.115,0.844,0.346c0.23,0.231,0.345,0.517,0.345,0.858c0,0.325-0.106,0.594-0.319,0.805
			c-0.213,0.211-0.483,0.317-0.811,0.317c-0.134,0-0.3-0.027-0.5-0.079l0.079,0.622c0.047-0.006,0.085-0.008,0.114-0.008
			c0.302,0,0.574,0.079,0.815,0.236c0.241,0.158,0.362,0.4,0.362,0.728c0,0.26-0.088,0.475-0.264,0.646
			c-0.176,0.171-0.403,0.256-0.681,0.256c-0.276,0-0.505-0.087-0.689-0.26c-0.184-0.173-0.302-0.433-0.354-0.78l-0.709,0.126
			c0.087,0.475,0.283,0.843,0.591,1.104c0.307,0.261,0.689,0.392,1.145,0.392c0.315,0,0.605-0.067,0.87-0.203
			c0.265-0.135,0.468-0.319,0.608-0.553c0.14-0.234,0.211-0.482,0.211-0.744c0-0.25-0.067-0.476-0.201-0.681
			c-0.134-0.205-0.332-0.368-0.594-0.488c0.341-0.079,0.606-0.242,0.795-0.49c0.189-0.248,0.283-0.559,0.283-0.931
			c0-0.504-0.184-0.931-0.551-1.282c-0.368-0.35-0.832-0.526-1.394-0.526c-0.506,0-0.927,0.151-1.262,0.453
			C140.384,607.334,140.193,607.726,140.145,608.206z"/>
	</g>
	<g enable-background="new    ">
		<path d="M141.616,618.298v0.713h2.177v-0.713H141.616z"/>
	</g>
	<g enable-background="new    ">
		<path d="M121.683,585.966c0,1.188,0.319,2.118,0.957,2.79c0.638,0.672,1.461,1.008,2.471,1.008c0.661,0,1.256-0.158,1.787-0.473
			c0.531-0.316,0.935-0.756,1.213-1.321c0.278-0.565,0.417-1.205,0.417-1.921c0-0.726-0.146-1.375-0.439-1.948
			c-0.293-0.573-0.708-1.007-1.245-1.301c-0.537-0.295-1.116-0.442-1.738-0.442c-0.674,0-1.276,0.162-1.806,0.488
			s-0.933,0.77-1.206,1.333C121.82,584.742,121.683,585.338,121.683,585.966z M122.66,585.951c0-0.863,0.232-1.542,0.696-2.038
			c0.464-0.497,1.046-0.745,1.745-0.745c0.713,0,1.299,0.25,1.76,0.752c0.461,0.501,0.691,1.213,0.691,2.134
			c0,0.583-0.099,1.091-0.296,1.526c-0.197,0.435-0.485,0.772-0.864,1.011c-0.379,0.239-0.805,0.359-1.277,0.359
			c-0.671,0-1.248-0.23-1.731-0.691C122.902,587.797,122.66,587.028,122.66,585.951z"/>
	</g>
	<g enable-background="new    ">
		<path d="M129.781,582.48v7.158h0.947v-2.939h3.72v2.939h0.947v-7.158h-0.947v3.374h-3.72v-3.374H129.781z"/>
	</g>
	<g enable-background="new    ">
		<path d="M138.78,589.985v0.713h2.177v-0.713H138.78z"/>
	</g>
	
		<path id="path3869" inkscape:connector-curvature="0" fill="none" stroke="#000000" stroke-width="0.72" stroke-linecap="round" stroke-miterlimit="10" d="
		M106.32,599.04h43.44"/>
	
		<path id="path3871" inkscape:connector-curvature="0" fill="none" stroke="#000000" stroke-width="0.72" stroke-linecap="round" stroke-miterlimit="10" d="
		M106.32,601.92h43.44"/>
	
		<path id="path3873" inkscape:connector-curvature="0" stroke="#000000" stroke-width="0.72" stroke-linecap="round" stroke-miterlimit="10" d="
		M149.76,601.92l-7.92,1.92l1.44-1.92H149.76z"/>
	
		<path id="path3875" inkscape:connector-curvature="0" stroke="#000000" stroke-width="0.72" stroke-linecap="round" stroke-miterlimit="10" d="
		M106.32,599.04l7.92-1.92l-1.44,1.92H106.32L106.32,599.04z"/>
	
		<path id="path3877" inkscape:connector-curvature="0" fill="none" stroke="#FF0000" stroke-width="1.44" stroke-linecap="round" stroke-miterlimit="10" d="
		M113.52,614.16l26.88-26.88"/>
	
		<path id="path3879" inkscape:connector-curvature="0" fill="none" stroke="#FF0000" stroke-width="1.44" stroke-linecap="round" stroke-miterlimit="10" d="
		M140.64,614.64l-26.88-26.88"/>
</g>
</svg>
